<svg version="1.0" xmlns="http://www.w3.org/2000/svg" width="1306.000000pt" height="1502.000000pt"
    viewBox="0 0 1306.000000 1502.000000" preserveAspectRatio="xMidYMid meet">

    <g transform="translate(0.000000,1502.000000) scale(0.100000,-0.100000)" fill="#ffffff" stroke="none">
        <path d="M9370 13882 c0 -11 -6 -22 -12 -25 -9 -3 -7 -9 6 -20 18 -13 23 -13
47 6 30 22 24 38 -19 51 -18 6 -22 3 -22 -12z" />
        <path d="M9682 13798 c-7 -7 -8 -16 -3 -22 12 -16 23 -66 14 -67 -33 -6 -79
-4 -84 3 -8 12 -35 13 -82 4 -27 -5 -37 -4 -32 3 3 6 0 9 -7 6 -7 -3 -31 2
-53 10 -37 13 -41 13 -57 -5 -9 -11 -21 -20 -28 -20 -6 0 -8 -4 -5 -10 3 -5 2
-10 -3 -10 -16 0 -48 -34 -66 -68 -13 -25 -22 -32 -37 -27 -11 4 -19 2 -19 -4
0 -6 -7 -11 -15 -11 -8 0 -15 -7 -15 -16 0 -10 -5 -14 -16 -10 -8 3 -12 2 -9
-3 7 -13 -6 -20 -44 -23 -22 -2 -31 -7 -31 -20 0 -10 7 -18 15 -18 8 0 15 -4
15 -10 0 -5 7 -10 15 -10 16 0 65 -46 65 -61 0 -5 -8 -16 -18 -26 -16 -16 -19
-36 -13 -95 1 -5 6 -8 12 -8 5 0 8 4 4 9 -3 5 -1 12 4 15 6 4 8 -7 6 -24 -4
-26 -1 -30 20 -30 14 0 25 -4 25 -9 0 -10 19 -9 37 2 6 4 14 3 18 -3 3 -5 13
-10 21 -10 9 0 12 5 8 12 -4 7 -3 8 4 4 7 -4 12 -14 12 -22 0 -8 7 -14 15 -14
8 0 15 -7 15 -16 0 -10 5 -14 16 -10 17 7 76 -33 68 -45 -3 -5 3 -6 12 -2 12
4 15 3 10 -5 -4 -7 -2 -12 4 -12 7 0 10 -6 7 -13 -5 -14 7 -18 55 -18 15 0 27
-5 25 -10 -1 -6 7 -16 18 -22 26 -16 54 -49 55 -64 0 -7 12 -15 28 -19 27 -6
45 -11 59 -16 16 -6 56 -49 51 -54 -7 -7 44 -60 55 -56 14 4 37 -26 32 -40 -4
-9 4 -19 20 -26 20 -9 25 -17 20 -32 -4 -11 -2 -20 3 -20 10 0 22 -29 26 -62
2 -10 6 -21 9 -24 8 -8 -24 -64 -36 -64 -4 0 -6 -4 -2 -9 3 -5 -4 -12 -15 -16
-11 -3 -20 -15 -20 -25 0 -10 -5 -20 -10 -22 -6 -2 -12 -16 -13 -31 -1 -15 -7
-31 -14 -35 -20 -13 -19 -56 4 -79 12 -12 24 -19 27 -16 3 4 6 1 6 -6 0 -7 -7
-19 -15 -27 -8 -9 -15 -26 -15 -39 0 -13 -5 -27 -10 -30 -6 -4 -10 -14 -9 -23
3 -33 -1 -39 -41 -58 -23 -11 -46 -32 -55 -49 -8 -16 -24 -41 -35 -55 -17 -21
-21 -23 -30 -10 -6 10 -10 11 -10 3 0 -7 -6 -13 -14 -13 -8 0 -22 -10 -30 -22
-15 -21 -15 -23 5 -30 16 -6 19 -13 13 -30 -3 -12 -13 -28 -20 -36 -8 -7 -14
-22 -14 -33 0 -11 -4 -17 -10 -14 -5 3 -10 -3 -10 -14 0 -12 -5 -21 -11 -21
-5 0 -8 -4 -5 -8 5 -9 -28 -42 -42 -42 -5 0 -19 -20 -31 -45 -15 -30 -29 -45
-42 -45 -11 0 -19 -7 -19 -16 0 -8 -4 -13 -9 -10 -5 3 -8 -2 -7 -12 0 -11 -6
-16 -17 -16 -9 1 -17 -3 -16 -10 3 -28 -2 -44 -17 -50 -13 -5 -14 -4 -5 7 9
11 5 14 -18 15 -32 1 -43 -14 -49 -65 -1 -6 -11 -15 -22 -18 -11 -3 -20 -12
-20 -19 0 -7 -11 -18 -25 -24 -29 -13 -31 -31 -10 -72 18 -34 11 -77 -15 -100
-9 -8 -15 -21 -13 -27 3 -7 0 -13 -6 -13 -6 0 -11 -7 -11 -15 0 -8 -5 -15 -10
-15 -6 0 -9 -3 -8 -7 1 -5 -4 -21 -11 -37 -6 -16 -9 -36 -6 -44 3 -9 0 -12 -9
-9 -14 5 -27 -14 -25 -36 0 -5 -10 -17 -23 -28 -45 -37 -55 -49 -81 -100 -11
-21 -30 -40 -48 -46 -17 -7 -28 -17 -24 -22 3 -6 3 -11 -2 -11 -4 0 -13 -11
-20 -25 -9 -21 -9 -25 5 -26 10 0 2 -5 -15 -10 -18 -5 -33 -14 -33 -19 0 -10
-35 -23 -67 -24 -12 -1 -19 2 -17 6 3 4 -2 8 -11 8 -10 0 -15 7 -13 18 2 11
-3 17 -17 17 -11 0 -21 -6 -21 -12 -1 -7 -2 -14 -4 -15 -1 -2 -3 -21 -4 -42
-1 -23 -7 -41 -15 -44 -16 -5 -42 -31 -57 -57 -6 -11 -25 -26 -42 -34 -17 -9
-30 -22 -27 -28 2 -7 -1 -13 -8 -13 -15 0 -53 -41 -49 -53 1 -4 -4 -15 -12
-23 -9 -8 -13 -21 -10 -29 4 -8 -1 -18 -10 -21 -9 -3 -13 -10 -10 -15 3 -5 -1
-9 -9 -9 -29 0 -48 -37 -59 -115 -2 -12 -28 -39 -28 -29 0 16 -49 -45 -63 -78
-9 -21 -22 -38 -29 -38 -15 0 -41 -37 -30 -42 5 -2 2 -14 -5 -28 -7 -14 -13
-20 -13 -13 0 8 -18 5 -60 -9 -48 -16 -60 -24 -61 -41 -1 -55 -11 -92 -24
-100 -8 -4 -15 -21 -15 -36 0 -16 -7 -34 -15 -41 -8 -7 -15 -18 -15 -25 0 -6
-11 -25 -24 -40 -14 -16 -23 -32 -20 -37 3 -4 0 -8 -5 -8 -6 0 -11 -7 -11 -15
0 -8 -11 -25 -25 -39 -13 -13 -27 -35 -30 -49 -7 -24 -19 -29 -41 -14 -8 4
-14 -3 -18 -19 -5 -20 -11 -24 -28 -18 -13 4 -18 2 -14 -5 10 -15 -23 -61 -39
-55 -7 3 -16 -4 -20 -15 -3 -12 -10 -19 -14 -17 -7 5 -12 -18 -15 -71 0 -18
-6 -33 -11 -33 -12 0 -46 -36 -40 -42 2 -2 -5 -4 -16 -5 -21 -2 -79 -40 -78
-51 3 -20 -3 -32 -16 -32 -9 0 -15 -9 -15 -22 0 -12 -3 -19 -6 -15 -9 9 -49
-31 -50 -51 -1 -9 -5 -26 -10 -36 -5 -13 -4 -17 3 -13 6 4 10 1 8 -5 -10 -41
-18 -57 -27 -52 -5 3 -7 12 -4 19 7 18 -23 28 -41 14 -8 -7 -12 -18 -9 -25 3
-8 0 -11 -9 -8 -7 3 -18 -4 -25 -15 -6 -12 -7 -21 -3 -22 4 0 -1 -4 -12 -8
-15 -6 -21 -20 -25 -52 -4 -36 -9 -44 -25 -44 -11 0 -24 -6 -28 -12 -4 -7 -15
-13 -22 -13 -14 0 -20 -13 -16 -34 1 -5 -8 -15 -19 -23 -12 -8 -19 -21 -16
-28 6 -16 -15 -25 -42 -18 -11 2 -23 0 -26 -6 -5 -8 -13 -8 -26 -1 -14 8 -21
5 -35 -16 -9 -14 -27 -29 -41 -34 -13 -5 -24 -15 -24 -21 0 -6 -10 -19 -22
-29 -12 -10 -23 -28 -23 -41 -1 -31 -35 -100 -45 -94 -5 3 -21 -6 -36 -20 -14
-13 -32 -22 -38 -18 -6 4 -5 -1 3 -10 12 -15 11 -17 -3 -17 -11 0 -18 -13 -22
-40 -4 -22 -13 -45 -20 -51 -8 -6 -14 -17 -14 -23 0 -6 -9 -18 -20 -26 -11 -8
-20 -19 -20 -25 0 -16 -38 -36 -45 -24 -5 7 -11 7 -20 -1 -9 -7 -20 -6 -41 5
-19 10 -23 15 -11 15 9 0 17 5 17 11 0 6 -7 9 -15 6 -8 -4 -17 -2 -20 2 -3 5
-24 7 -47 5 -24 -2 -51 -4 -60 -4 -10 -1 -18 -8 -18 -17 0 -12 -8 -14 -35 -11
-19 2 -35 0 -35 -4 0 -17 -25 -7 -47 19 -13 14 -23 21 -23 15 0 -22 -19 -12
-37 18 -9 17 -21 30 -26 30 -4 0 -5 -4 -2 -10 12 -19 -4 -10 -33 18 -16 15
-27 33 -25 39 6 17 -27 25 -33 8 -4 -10 -15 -13 -32 -10 -14 2 -31 1 -36 -4
-6 -4 -22 -2 -36 5 -14 8 -19 14 -12 14 19 0 10 35 -8 35 -11 0 -14 10 -12 39
3 26 0 36 -7 31 -6 -3 -8 -12 -5 -18 4 -7 -12 8 -34 32 -23 24 -42 38 -42 30
-1 -10 -3 -9 -11 4 -5 9 -19 17 -30 17 -21 0 -81 58 -73 71 2 4 -1 9 -6 11 -6
2 -12 11 -14 21 -1 10 -6 17 -10 17 -10 -2 -46 40 -46 52 0 5 -9 6 -20 3 -14
-4 -20 -2 -20 9 0 9 -9 21 -20 28 -11 7 -20 18 -20 25 0 7 -7 10 -15 7 -11 -5
-13 -2 -9 10 3 9 1 16 -5 16 -6 0 -11 10 -11 23 0 18 -2 19 -10 7 -8 -13 -13
-11 -32 11 -13 15 -35 35 -50 44 -16 10 -28 23 -28 30 0 6 -9 20 -20 30 -11
10 -20 23 -20 29 0 6 -25 29 -55 51 -30 22 -54 46 -55 53 0 7 -4 10 -10 7 -5
-3 -10 -1 -10 4 0 22 -8 32 -76 93 -28 25 -44 46 -44 58 0 6 -5 8 -12 4 -8 -5
-9 -2 -5 9 4 11 1 17 -9 17 -8 0 -13 4 -10 9 3 5 -1 12 -10 15 -8 3 -20 19
-26 36 -9 26 -12 29 -26 18 -13 -11 -14 -11 -8 0 5 8 -2 23 -18 39 -15 15 -26
34 -25 42 3 29 -1 36 -12 21 -9 -12 -10 -11 -6 7 4 16 -9 39 -43 83 -27 33
-51 56 -54 51 -3 -5 1 -11 9 -15 8 -3 15 -10 15 -16 0 -16 -34 20 -37 39 -1 9
-14 26 -28 38 -20 17 -27 34 -29 71 -3 44 -13 65 -52 106 -6 6 -9 17 -6 24 2
6 -2 12 -8 12 -7 0 -10 7 -6 15 3 9 -1 15 -11 15 -12 0 -13 3 -4 14 10 12 8
13 -10 9 -14 -4 -20 -2 -15 5 3 6 -2 13 -12 16 -10 4 -29 16 -43 29 -13 12
-27 22 -32 22 -17 0 -23 28 -16 73 10 63 1 102 -22 102 -13 0 -16 5 -12 16 3
9 1 19 -6 23 -7 5 -14 32 -17 62 -5 69 -12 89 -38 112 -18 16 -18 18 -3 13 14
-5 11 4 -13 34 -17 22 -27 40 -21 40 6 0 3 9 -7 20 -9 11 -20 30 -23 43 -3 12
-11 21 -17 20 -7 -2 -12 2 -12 7 0 6 5 10 11 10 5 0 7 5 4 10 -4 6 -11 8 -16
5 -5 -4 -9 -1 -9 5 0 6 -7 18 -15 27 -11 11 -13 19 -5 28 7 9 5 19 -10 37 -10
14 -16 28 -13 32 3 3 1 6 -6 6 -7 0 -10 4 -7 9 3 5 -1 11 -8 14 -8 3 -18 27
-22 52 -3 25 -13 52 -20 60 -8 7 -14 19 -14 25 0 17 -31 60 -40 55 -5 -3 -11
-1 -15 5 -3 5 -2 10 4 10 6 0 6 11 1 30 -5 17 -7 40 -5 52 3 12 1 26 -4 32 -5
6 -11 27 -15 47 -4 21 -13 43 -21 49 -10 8 -13 21 -9 33 3 11 2 17 -2 14 -5
-3 -9 9 -10 27 0 32 -52 176 -63 176 -4 0 -17 22 -30 50 -19 40 -22 58 -16 92
4 24 8 86 10 138 3 105 -7 130 -54 130 -31 1 -66 24 -56 39 3 6 1 11 -5 11 -6
0 -8 4 -5 10 3 5 -13 23 -36 40 -28 20 -45 27 -49 19 -5 -7 -9 -5 -13 5 -4 9
-23 18 -44 22 -57 9 -84 35 -85 84 0 22 -5 40 -10 40 -5 0 -6 5 -2 11 5 8 -1
10 -18 6 -34 -9 -121 21 -114 38 6 16 -17 38 -28 28 -4 -4 -4 1 0 11 5 12 4
17 -3 13 -6 -4 -9 3 -8 18 2 13 0 23 -3 22 -15 -4 -90 33 -95 47 -4 9 -13 16
-21 16 -8 0 -18 9 -21 20 -3 11 -13 20 -21 20 -8 0 -14 5 -14 10 0 6 -7 10
-15 10 -8 0 -15 5 -15 10 0 6 -9 10 -21 10 -11 0 -18 4 -15 9 7 11 -45 1 -61
-11 -9 -7 -25 -5 -50 5 -25 9 -46 12 -61 6 -12 -5 -22 -5 -22 1 0 5 -8 11 -19
15 -10 3 -29 14 -41 25 -12 11 -26 17 -31 15 -4 -3 -10 -1 -14 5 -4 6 -11 8
-16 4 -5 -3 -18 5 -29 19 -20 25 -30 26 -125 14 -14 -1 -21 5 -23 20 -2 12
-15 26 -33 33 -16 7 -29 17 -29 22 0 6 -10 7 -23 3 -41 -12 -97 -17 -115 -9
-9 4 -24 6 -34 5 -9 -1 -19 3 -23 9 -3 6 -10 8 -15 5 -5 -3 -31 -7 -59 -9 -39
-3 -48 0 -44 10 3 8 0 14 -7 14 -6 0 -10 6 -8 12 8 24 -18 38 -51 28 -18 -5
-33 -5 -36 1 -8 12 -55 -40 -49 -55 5 -13 -41 -58 -50 -49 -3 4 -6 1 -6 -5 0
-17 -26 -15 -45 4 -11 12 -26 14 -53 10 -20 -3 -43 -7 -49 -8 -7 -1 -13 -5
-13 -10 0 -5 -9 -6 -20 -3 -11 3 -20 2 -20 -4 0 -5 -16 -8 -35 -6 -19 2 -35 0
-35 -4 0 -4 -8 -7 -17 -8 -44 -4 -115 -24 -138 -39 -14 -9 -25 -13 -25 -9 0 4
-6 3 -12 -2 -7 -6 -29 -11 -48 -11 -20 -1 -54 -9 -75 -18 -22 -10 -62 -21 -90
-25 -54 -9 -73 -13 -122 -28 -18 -5 -46 -8 -63 -6 -17 2 -30 -1 -30 -7 0 -6
-9 -8 -20 -5 -11 3 -23 1 -26 -4 -3 -5 -20 -9 -39 -9 -18 0 -40 -6 -47 -12
-12 -12 -29 -17 -73 -21 -11 -1 -26 -6 -33 -11 -7 -4 -16 -6 -19 -3 -9 10 8
27 28 27 16 0 19 7 19 40 0 22 4 40 9 40 5 0 13 9 16 20 3 11 12 20 19 20 24
0 40 28 27 44 -15 18 -45 15 -90 -7 -19 -9 -40 -17 -47 -17 -21 0 -27 -38 -10
-56 20 -20 20 -43 1 -50 -8 -4 -13 -10 -10 -14 3 -4 -2 -10 -10 -14 -12 -4
-13 -11 -5 -31 13 -34 13 -35 -5 -35 -8 0 -15 -6 -15 -12 0 -14 -59 -58 -78
-58 -7 0 -12 -4 -12 -8 0 -5 -19 -6 -42 -2 -27 4 -58 1 -83 -8 -64 -23 -82
-88 -30 -108 l24 -9 -21 -45 c-11 -25 -25 -48 -31 -52 -16 -10 -16 -198 1
-198 6 0 12 5 12 10 0 7 6 7 19 0 11 -5 30 -10 43 -10 13 0 32 -9 42 -21 12
-15 26 -20 47 -17 16 3 29 1 29 -4 0 -4 6 -8 14 -8 7 0 25 -9 39 -20 14 -11
32 -20 40 -20 9 0 22 -6 29 -12 19 -18 68 -22 96 -7 17 10 25 10 30 2 8 -12
45 -22 95 -27 16 -2 32 -7 35 -12 13 -18 57 -31 101 -30 27 1 45 -3 48 -11 4
-11 8 -11 20 -1 9 7 17 8 21 2 4 -6 23 -11 42 -12 19 -2 37 -7 38 -12 2 -6 13
-15 24 -21 15 -8 19 -8 13 1 -5 8 0 7 14 -2 12 -7 21 -15 21 -18 0 -3 36 -6
79 -7 88 -1 141 -22 233 -89 26 -20 48 -33 48 -29 0 4 7 2 15 -5 8 -6 19 -9
24 -6 5 4 12 2 16 -4 3 -5 16 -10 28 -10 40 1 94 -7 107 -15 6 -4 49 -16 93
-25 45 -10 91 -22 101 -26 14 -5 17 -4 12 4 -5 9 -1 10 16 3 13 -5 32 -5 44
-1 26 10 49 -3 41 -24 -4 -10 -1 -16 7 -16 8 0 16 -8 20 -17 9 -30 46 -89 46
-75 0 20 33 -2 50 -32 7 -14 20 -26 28 -26 9 0 12 -3 9 -7 -4 -3 2 -13 13 -20
11 -8 18 -18 16 -22 -3 -4 4 -14 15 -21 10 -8 19 -20 19 -27 0 -7 7 -13 16
-13 10 0 14 -6 11 -14 -4 -9 1 -17 11 -21 9 -3 28 -21 42 -40 14 -19 31 -35
38 -35 8 0 21 -18 29 -40 9 -22 20 -40 24 -40 4 0 15 -7 24 -16 8 -9 27 -17
40 -18 14 0 25 -4 25 -8 0 -4 6 -5 14 -2 18 7 28 -10 32 -54 4 -37 28 -82 45
-82 6 0 9 7 5 15 -3 8 -1 15 4 15 6 0 10 -5 10 -10 0 -15 94 -110 108 -110 7
0 13 -8 14 -17 4 -47 17 -83 29 -83 6 0 21 -11 34 -25 14 -13 25 -22 25 -20 0
2 19 -14 42 -36 23 -21 45 -39 49 -39 4 0 28 -20 53 -45 26 -25 51 -45 56 -45
6 0 10 -7 10 -15 0 -8 4 -15 10 -15 5 0 12 -16 16 -36 4 -20 16 -46 27 -57 20
-20 137 -61 137 -49 0 4 5 -1 11 -11 6 -9 14 -15 20 -12 5 4 9 -1 9 -10 0 -9
4 -13 10 -10 13 8 1 -26 -18 -47 -8 -10 -12 -24 -8 -33 3 -9 2 -13 -4 -10 -6
3 -10 1 -10 -4 0 -6 7 -11 15 -11 8 0 15 -6 15 -12 0 -7 13 -22 29 -33 17 -11
28 -21 26 -24 -3 -2 4 -10 15 -18 11 -8 20 -21 20 -29 0 -8 4 -14 8 -14 4 0 8
-9 9 -21 1 -12 8 -26 16 -32 23 -18 30 -54 13 -60 -8 -3 -17 -1 -20 6 -3 7 -4
-1 -4 -18 0 -16 0 -34 -2 -40 -1 -5 -2 -20 -1 -31 1 -17 6 -20 27 -16 20 3 24
9 21 24 -4 14 -2 18 9 14 9 -3 12 -1 9 4 -4 6 5 10 20 10 31 0 64 -35 65 -67
0 -13 4 -23 9 -23 5 0 7 -9 4 -20 -3 -11 0 -20 6 -20 6 0 11 -7 11 -15 0 -19
40 -55 61 -55 24 0 58 -37 53 -58 -4 -18 6 -33 49 -72 23 -20 27 -21 21 -6 -5
14 -4 17 4 12 8 -5 12 0 12 13 0 12 3 21 8 21 11 -1 61 -77 68 -104 3 -13 14
-33 24 -44 10 -11 16 -23 13 -26 -4 -3 1 -6 9 -6 17 0 31 -33 28 -67 -1 -14
15 -40 44 -70 26 -26 42 -49 36 -51 -5 -2 -10 -8 -10 -14 0 -5 9 -7 19 -3 14
4 21 0 26 -16 6 -17 13 -20 37 -17 21 3 33 0 41 -13 6 -9 17 -14 25 -11 10 3
13 1 8 -6 -4 -7 -1 -12 10 -12 11 0 15 -6 11 -19 -3 -14 -1 -18 9 -14 8 3 14
-1 14 -11 0 -9 -4 -16 -8 -16 -4 0 -9 -11 -10 -25 -1 -19 5 -28 23 -35 14 -5
25 -14 25 -20 0 -6 4 -8 10 -5 6 3 10 1 10 -4 0 -6 6 -11 14 -11 9 0 12 -7 9
-18 -3 -12 4 -25 21 -36 14 -9 26 -13 26 -9 0 5 5 0 11 -10 10 -17 12 -17 23
-1 12 15 14 14 19 -15 6 -27 95 -131 113 -131 3 0 29 -22 57 -50 28 -27 58
-50 65 -50 42 0 152 -72 152 -100 0 -5 22 -19 49 -30 48 -21 128 -91 86 -76
-11 4 -17 4 -13 1 3 -4 2 -20 -4 -36 -7 -20 -17 -29 -32 -29 -13 0 -31 -9 -41
-20 -20 -22 -40 -27 -30 -7 4 6 -2 2 -12 -9 -11 -13 -36 -24 -62 -28 -35 -5
-53 -16 -95 -60 -34 -36 -63 -56 -86 -61 -19 -4 -41 -16 -48 -27 -7 -10 -18
-16 -23 -13 -5 4 -9 -17 -9 -49 0 -50 -3 -58 -40 -95 -23 -23 -45 -41 -50 -41
-16 0 -23 -22 -9 -31 10 -6 11 -9 2 -9 -7 0 -13 -5 -13 -11 0 -6 7 -9 15 -5 8
3 15 1 15 -5 0 -14 18 -31 58 -54 17 -11 32 -23 32 -28 0 -4 4 -6 9 -3 5 3 14
-1 21 -9 7 -8 28 -15 46 -15 19 0 34 -4 34 -10 0 -5 7 -7 15 -4 8 4 15 2 15
-3 0 -5 17 -8 38 -8 20 0 43 -6 50 -13 8 -7 18 -10 23 -7 5 3 19 1 31 -6 12
-6 38 -14 57 -16 20 -3 37 -9 39 -14 2 -4 17 -6 33 -2 17 3 35 0 44 -7 11 -10
19 -10 27 -2 7 7 20 6 45 -6 26 -13 38 -14 52 -5 12 8 22 8 28 2 6 -6 24 -11
42 -11 24 -1 33 -6 37 -24 3 -12 12 -25 20 -28 8 -3 14 -12 14 -21 0 -24 28
-18 32 8 2 15 10 22 25 22 12 0 25 4 29 8 11 11 26 8 19 -3 -3 -6 -2 -10 4
-10 5 0 12 6 14 13 4 7 8 3 13 -11 5 -17 12 -22 25 -19 11 3 19 1 19 -4 0 -5
15 -9 33 -9 51 0 113 -23 142 -52 21 -21 28 -39 29 -73 1 -24 5 -47 8 -50 3
-3 0 -25 -7 -48 -11 -38 -11 -85 0 -216 2 -24 6 -50 9 -58 3 -8 1 -11 -4 -8
-6 4 -10 -10 -9 -37 0 -24 -1 -108 -2 -188 -3 -197 -2 -203 16 -196 12 4 14 0
9 -18 -3 -13 1 -37 9 -52 8 -16 12 -36 9 -44 -4 -12 -3 -13 10 -3 20 17 28 7
28 -33 0 -25 7 -39 30 -55 16 -12 27 -26 24 -31 -3 -4 1 -8 8 -8 16 0 24 -95
9 -104 -6 -4 -8 -13 -4 -22 3 -8 2 -14 -3 -13 -26 4 -43 -2 -38 -15 3 -8 0
-25 -7 -37 -10 -20 -9 -25 10 -37 17 -12 21 -24 21 -64 0 -30 -4 -47 -10 -43
-18 11 -11 -1 20 -36 16 -19 30 -28 30 -20 0 10 3 11 14 2 21 -18 78 -1 108
31 22 23 30 27 41 17 14 -14 10 -72 -4 -63 -6 3 -7 -11 -3 -33 3 -21 1 -49 -4
-63 -7 -18 -6 -37 2 -61 7 -19 10 -41 8 -48 -3 -8 -1 -11 4 -8 5 3 10 -6 10
-19 1 -13 -2 -21 -7 -18 -14 8 -11 -50 4 -70 12 -16 15 -16 42 -2 29 16 30 15
42 -12 16 -35 16 -55 1 -46 -8 5 -9 2 -5 -10 4 -9 3 -15 -2 -11 -6 3 -18 -8
-27 -24 -16 -27 -19 -28 -30 -13 -7 9 -18 17 -26 17 -7 1 -12 7 -10 14 2 11
-2 11 -20 -1 -13 -8 -28 -18 -35 -22 -9 -5 -7 -12 8 -27 14 -14 17 -24 10 -33
-12 -14 -10 -74 3 -95 7 -11 6 -12 -5 -6 -12 8 -12 6 -1 -8 8 -9 11 -20 8 -26
-7 -11 22 -24 35 -15 5 3 9 0 9 -5 0 -6 -7 -11 -15 -11 -9 0 -15 -9 -15 -25 0
-14 4 -25 9 -25 4 0 8 -30 7 -66 -1 -58 -4 -68 -23 -75 -28 -10 -35 -23 -27
-54 5 -20 9 -23 20 -14 11 9 14 7 14 -10 0 -12 4 -19 10 -16 6 4 8 -8 5 -31
-4 -35 16 -82 33 -76 4 1 7 -6 7 -15 0 -33 -88 -37 -99 -5 -6 20 -26 50 -43
70 -17 18 -35 5 -28 -19 4 -11 2 -26 -4 -32 -6 -8 -7 -27 -1 -50 6 -29 5 -39
-7 -45 -8 -5 -14 -12 -14 -15 1 -4 -1 -7 -4 -7 -3 1 -17 -8 -32 -20 -14 -11
-32 -20 -40 -20 -8 0 -29 -12 -46 -26 -23 -20 -32 -22 -39 -12 -6 11 -10 10
-17 -1 -5 -8 -19 -12 -35 -9 -14 3 -26 1 -26 -3 0 -5 -7 -9 -15 -9 -8 0 -14
-6 -13 -12 2 -7 -6 -13 -16 -13 -11 0 -21 -6 -24 -13 -2 -6 -8 -12 -13 -12 -6
0 -7 5 -4 10 3 6 -1 10 -9 10 -9 0 -16 -5 -16 -11 0 -6 -9 -9 -20 -6 -11 3
-23 1 -26 -5 -3 -5 -15 -8 -25 -5 -11 3 -19 2 -19 -2 0 -4 -28 -7 -62 -6 -38
1 -74 -4 -92 -12 -16 -9 -41 -12 -57 -9 -22 4 -29 1 -34 -15 -4 -10 -11 -16
-17 -13 -11 7 -84 15 -138 15 -19 0 -38 5 -42 12 -5 9 -18 8 -51 -5 -24 -9
-55 -14 -69 -11 -14 3 -29 0 -32 -6 -5 -7 -13 -8 -25 -2 -28 15 -42 -1 -32
-36 5 -17 5 -36 0 -44 -7 -11 -9 -11 -9 -1 0 7 -5 10 -10 7 -6 -4 -7 -11 -4
-17 4 -7 0 -7 -12 0 -11 5 -25 7 -33 4 -10 -3 -12 0 -8 11 3 9 -1 21 -10 29
-14 11 -16 11 -10 -4 4 -12 2 -15 -8 -12 -7 3 -16 12 -19 20 -3 8 -12 11 -21
8 -9 -4 -21 1 -29 11 -11 16 -14 16 -28 1 -19 -18 -35 -21 -40 -5 -2 5 -12 12
-23 13 -11 2 -19 9 -17 15 1 6 -9 11 -23 11 -14 0 -25 -5 -25 -10 0 -6 -16
-27 -35 -47 -41 -42 -42 -51 -13 -88 18 -23 26 -26 60 -22 28 4 40 1 47 -10 5
-10 11 -12 15 -5 3 6 19 7 38 3 47 -11 121 -6 126 7 2 7 10 12 18 12 9 0 13 4
10 9 -3 5 5 11 19 13 15 3 22 1 18 -5 -4 -6 0 -8 10 -4 8 3 21 -1 28 -10 10
-11 24 -14 55 -9 36 5 46 2 69 -22 25 -25 32 -27 127 -27 75 -1 101 2 105 12
3 8 10 10 17 5 32 -25 126 3 126 38 0 6 5 8 10 5 6 -3 10 -1 10 6 0 12 26 9
98 -12 36 -11 45 -11 51 0 5 8 14 10 21 6 9 -5 11 -4 6 3 -5 8 0 12 13 12 12
0 24 1 29 2 4 1 22 5 40 9 17 4 48 3 67 -1 41 -9 101 4 129 28 11 10 16 11 12
4 -6 -10 -3 -13 9 -10 37 7 28 28 -11 28 -49 0 -41 6 18 14 28 4 49 2 53 -4 3
-6 17 -8 31 -6 19 4 27 0 33 -17 5 -12 11 -21 15 -20 17 6 33 -11 33 -37 0
-25 -3 -28 -16 -17 -12 9 -13 9 -7 0 4 -7 3 -13 -3 -13 -7 0 -6 -10 0 -30 9
-24 8 -33 -5 -46 -9 -9 -23 -13 -31 -10 -28 10 -25 -12 3 -23 18 -8 33 -25 41
-46 7 -19 15 -34 19 -33 4 1 19 -5 35 -12 21 -10 30 -11 39 -2 24 24 36 13 33
-30 -3 -55 -4 -56 -14 -39 -6 9 -8 6 -8 -12 0 -27 -23 -57 -43 -57 -8 0 -10
-10 -7 -26 2 -14 -3 -40 -11 -57 -9 -18 -17 -38 -18 -44 -1 -7 -10 -20 -19
-29 -12 -13 -15 -26 -10 -48 14 -65 13 -127 -2 -133 -12 -5 -11 -9 2 -29 8
-13 11 -24 6 -24 -6 0 -8 -15 -5 -32 2 -18 5 -55 5 -82 0 -27 6 -61 13 -75 14
-30 11 -142 -5 -172 -5 -10 -16 -19 -24 -19 -8 0 -12 -6 -9 -14 3 -9 -4 -15
-20 -18 -14 -3 -26 -1 -26 3 0 5 -11 8 -25 7 -16 -2 -24 -7 -20 -15 3 -9 -3
-12 -20 -9 -14 3 -25 0 -25 -5 0 -5 -20 -14 -45 -21 -25 -7 -45 -15 -45 -19 0
-3 -19 -10 -42 -14 -24 -4 -50 -9 -58 -11 -94 -20 -158 -29 -153 -21 4 6 -1 8
-11 4 -10 -4 -28 -7 -42 -7 -14 0 -22 -5 -19 -12 3 -8 -4 -14 -20 -14 -15 -1
-22 2 -18 9 3 6 -9 -1 -28 -15 -19 -14 -40 -23 -46 -21 -7 3 -13 -3 -13 -12 0
-11 -5 -15 -15 -11 -8 3 -15 0 -15 -6 0 -9 -3 -9 -11 -1 -9 9 -15 8 -26 -3 -8
-8 -23 -14 -34 -14 -13 0 -18 -4 -13 -12 5 -8 2 -9 -10 -5 -10 4 -19 1 -23 -8
-3 -10 -10 -12 -17 -7 -19 16 -55 20 -60 8 -3 -8 -7 -7 -14 3 -8 12 -14 12
-41 0 -17 -8 -31 -19 -31 -26 0 -7 -7 -10 -15 -7 -8 3 -28 1 -45 -5 -17 -5
-28 -6 -25 -2 3 5 -9 14 -26 20 -17 6 -28 15 -24 21 4 6 -5 10 -20 10 -14 0
-24 3 -21 8 2 4 -14 6 -35 4 -30 -3 -39 -8 -35 -19 3 -8 1 -11 -4 -8 -6 4 -13
-8 -17 -25 -3 -18 -12 -34 -19 -37 -7 -2 -10 -12 -7 -20 5 -13 1 -15 -21 -9
-15 4 -25 3 -22 -2 2 -4 -9 -7 -25 -6 -16 1 -42 -2 -57 -7 -15 -5 -56 -15 -91
-24 -57 -13 -68 -13 -94 0 -16 8 -33 12 -38 9 -5 -3 -6 2 -3 10 6 15 -28 40
-40 29 -3 -3 -6 1 -6 10 0 10 8 17 19 17 11 0 23 5 27 12 5 8 2 9 -9 5 -11 -4
-20 0 -27 12 -10 20 -57 34 -66 19 -3 -5 -13 -3 -22 4 -13 11 -14 11 -10 -2 6
-16 -30 -95 -39 -86 -3 3 -12 -1 -19 -9 -17 -17 -18 -29 -2 -19 7 5 8 3 3 -6
-5 -8 -1 -18 10 -26 20 -15 30 -70 13 -80 -7 -4 -8 -3 -4 4 8 13 -67 7 -118
-9 -16 -5 -39 -9 -52 -9 -13 0 -24 -7 -26 -17 -5 -23 23 -73 40 -73 7 0 10 -5
7 -11 -4 -6 1 -17 11 -24 11 -8 15 -15 11 -15 -4 0 1 -10 13 -22 11 -12 20
-28 20 -35 0 -8 4 -12 9 -9 9 6 43 -73 36 -84 -3 -4 2 -13 10 -20 18 -15 20
-34 3 -24 -7 4 -8 3 -4 -4 4 -7 13 -12 21 -12 7 0 15 -10 17 -22 2 -13 9 -22
16 -20 6 1 12 -7 12 -18 0 -11 3 -20 8 -20 4 0 18 -10 32 -21 14 -11 18 -17
10 -13 -13 7 -13 5 -1 -9 7 -9 18 -14 24 -10 6 4 8 0 4 -10 -4 -11 1 -18 14
-22 11 -4 18 -9 15 -12 -8 -9 21 -33 39 -33 12 0 15 -5 11 -16 -5 -12 -2 -15
11 -10 10 4 14 4 10 0 -9 -10 43 -65 55 -58 9 6 34 -15 35 -29 3 -60 16 -134
28 -157 17 -33 50 -54 67 -44 7 5 9 2 5 -9 -4 -12 -2 -14 10 -10 11 4 14 2 9
-5 -4 -7 -2 -10 6 -7 17 7 73 -50 64 -64 -4 -6 -3 -11 3 -11 6 0 18 -15 27
-32 9 -18 23 -37 31 -41 7 -5 11 -12 8 -18 -4 -5 1 -9 9 -9 9 0 16 -5 16 -11
0 -5 5 -7 12 -3 6 4 17 -1 25 -12 8 -10 17 -18 21 -18 4 1 6 -2 5 -6 -2 -5 14
-23 34 -39 21 -17 32 -31 25 -31 -6 0 -12 -5 -12 -11 0 -6 6 -9 13 -6 18 7 51
-19 41 -34 -4 -7 -3 -10 3 -6 11 7 43 -27 43 -46 0 -8 4 -7 10 3 8 13 10 12
10 -2 0 -26 2 -32 18 -47 7 -8 12 -22 9 -31 -5 -18 22 -40 49 -40 10 0 14 -5
10 -16 -3 -8 -2 -12 3 -9 5 3 12 1 15 -4 3 -5 22 -12 41 -15 19 -4 35 -11 35
-15 0 -12 45 -40 72 -45 13 -2 33 1 46 5 13 5 21 6 19 1 -3 -4 15 -7 40 -7 24
0 49 -5 55 -12 6 -7 14 -13 19 -13 5 0 27 -11 48 -24 21 -14 42 -22 46 -18 5
4 5 -1 2 -10 -4 -11 -1 -18 7 -18 7 0 32 -18 56 -40 43 -40 57 -49 45 -30 -3
6 -2 10 3 10 6 0 13 -7 16 -16 4 -9 13 -14 21 -10 8 3 15 0 15 -5 0 -7 11 -9
25 -7 13 3 22 2 20 -2 -6 -9 134 -6 160 4 11 4 28 12 38 17 10 5 22 7 27 4 6
-4 10 -1 10 6 0 6 8 9 20 6 11 -3 23 -1 26 4 3 5 11 6 17 3 7 -4 9 -4 5 0 -7
9 31 50 39 42 3 -2 15 6 28 20 12 13 29 24 38 24 9 0 18 4 21 9 5 7 33 14 93
23 7 1 15 8 17 15 3 8 10 12 15 8 5 -3 13 0 17 6 4 8 9 7 15 -2 7 -11 10 -9
15 9 4 12 13 22 20 22 8 0 14 7 14 16 0 8 4 13 10 9 5 -3 19 4 31 16 16 16 21
18 16 6 -8 -22 -5 -21 23 3 13 11 20 20 16 20 -15 0 20 27 37 28 42 4 47 6 47
14 0 5 6 8 13 7 23 -4 71 22 95 52 14 16 33 29 43 29 9 0 27 12 39 27 12 16
18 22 15 15 -6 -11 -3 -11 14 0 12 7 21 18 21 25 0 6 13 14 30 18 33 7 50 25
24 25 -19 0 -10 14 9 16 7 0 20 2 30 2 9 1 17 9 17 17 0 8 5 15 11 15 5 0 7
-4 4 -10 -3 -5 0 -7 9 -4 8 3 12 12 9 20 -3 8 -1 14 5 14 6 0 23 13 38 29 15
17 32 27 37 24 5 -3 22 7 38 23 29 27 40 52 17 38 -7 -4 -8 -3 -4 5 4 6 10 9
14 7 13 -8 77 30 74 44 -3 11 0 11 14 -1 12 -9 15 -10 10 -1 -8 13 41 61 76
74 11 4 17 12 14 17 -3 5 5 12 19 15 14 4 25 13 25 21 0 8 6 15 13 15 17 0 39
38 31 52 -5 7 -2 9 9 5 11 -4 14 -2 10 9 -3 7 -11 14 -19 14 -8 0 -14 4 -14 9
0 5 -18 23 -41 39 -25 19 -36 33 -29 37 6 4 9 13 6 21 -3 7 -1 16 5 19 5 4 7
10 5 14 -3 4 6 18 19 29 14 12 25 32 25 44 0 17 -3 19 -9 9 -6 -9 -10 -10 -12
-2 -3 9 -12 9 -31 2 -22 -8 -27 -7 -31 10 -3 10 -1 19 4 19 5 0 9 10 9 23 0
17 9 26 35 36 19 7 35 16 35 21 0 5 14 11 30 15 17 4 28 11 25 16 -3 4 3 16
15 26 11 10 20 23 20 30 0 17 -49 28 -63 14 -6 -6 -19 -11 -28 -11 -9 0 -22
-7 -29 -16 -9 -10 -24 -14 -46 -11 -18 3 -37 0 -43 -6 -8 -8 -11 -4 -11 15 0
26 20 42 61 47 5 0 8 5 5 9 -5 9 10 18 67 41 15 6 26 14 25 18 -3 16 14 63 28
74 8 6 11 15 8 20 -3 5 2 6 10 3 11 -4 16 0 16 11 0 9 5 13 10 10 6 -3 10 -1
10 5 0 6 7 18 15 27 12 11 13 19 5 28 -8 10 -6 17 9 27 19 13 19 16 5 36 -8
12 -11 22 -5 22 6 0 7 7 4 17 -4 10 -2 14 4 10 6 -4 19 3 29 14 10 12 32 28
49 36 16 9 33 21 37 28 4 7 24 12 45 11 35 -1 38 -3 35 -26 -5 -35 -43 -100
-59 -100 -17 0 -17 -17 0 -23 9 -3 8 -9 -4 -23 -16 -20 -15 -54 2 -54 6 0 8
-4 5 -9 -3 -5 0 -11 8 -14 22 -8 56 4 56 19 0 8 10 18 23 23 27 10 53 39 43
48 -13 13 37 35 87 39 29 2 53 8 55 14 2 6 8 8 12 5 5 -3 17 -1 27 4 10 6 35
13 56 16 20 3 37 10 37 15 0 6 9 10 21 10 11 0 17 5 14 10 -3 6 4 10 17 10 21
0 98 35 156 71 12 8 28 28 34 46 6 18 15 30 20 27 4 -3 5 3 1 12 -5 14 -3 16
12 10 11 -4 22 -2 27 6 5 8 8 9 8 2 0 -8 13 -9 38 -4 49 9 65 18 58 37 -4 9
-2 11 6 7 7 -5 9 -2 5 9 -4 11 -2 14 8 10 8 -3 12 -9 9 -15 -3 -5 8 -3 24 6
17 9 38 16 48 16 10 0 14 5 10 16 -3 8 -2 12 4 9 6 -3 10 1 10 9 0 9 4 16 9
16 14 0 23 32 12 43 -7 7 0 18 20 32 23 18 26 24 14 28 -8 4 -15 3 -15 -2 0
-5 -8 -11 -17 -15 -10 -3 -25 -10 -33 -15 -8 -5 -34 -15 -57 -22 -24 -7 -43
-17 -43 -22 0 -14 -63 -71 -106 -96 -37 -22 -114 -29 -114 -10 0 5 -5 7 -10 4
-6 -4 -8 -11 -5 -16 4 -5 -1 -9 -9 -9 -9 0 -13 -6 -10 -14 3 -8 -4 -19 -16
-26 -13 -7 -19 -17 -16 -26 4 -11 0 -14 -13 -12 -11 2 -35 -12 -58 -33 -44
-41 -70 -53 -76 -36 -3 8 -10 7 -24 -5 -11 -10 -27 -18 -36 -18 -9 0 -18 -4
-21 -9 -8 -13 -55 -20 -84 -12 -36 10 -36 44 0 60 17 8 28 20 27 30 -3 23 11
52 22 45 5 -3 9 2 9 10 0 10 9 16 23 16 23 0 81 33 72 41 -2 3 12 6 31 6 36 1
84 34 84 58 0 20 56 66 73 60 10 -4 20 1 27 14 6 12 17 21 24 21 7 0 21 11 31
24 12 16 24 22 38 18 12 -3 18 -1 14 5 -4 6 4 13 18 16 14 2 24 2 21 -1 -3 -2
2 -11 10 -20 11 -10 18 -12 22 -5 4 6 19 10 34 10 14 -1 24 -5 21 -9 -7 -13 4
-9 49 14 54 28 66 39 60 58 -3 8 -1 12 3 8 12 -11 35 11 35 34 0 11 9 22 20
25 11 3 20 9 20 14 0 5 5 9 11 9 6 0 9 -9 6 -20 -5 -20 7 -22 46 -5 13 6 15
10 7 15 -13 8 -10 10 86 59 l47 24 17 -23 c14 -19 20 -21 38 -11 26 14 62 14
62 1 0 -5 5 -10 11 -10 8 0 8 5 -1 15 -10 12 -9 16 6 22 27 10 44 35 38 56 -4
11 0 17 13 19 10 0 23 2 28 3 6 2 18 3 28 4 11 1 24 15 33 36 8 19 20 34 27
32 6 -1 12 5 12 13 0 8 4 21 9 28 5 9 1 15 -13 19 -12 3 -21 11 -21 18 0 16
35 29 50 20 6 -3 7 1 4 10 -4 10 -2 14 8 10 8 -3 21 1 28 10 7 8 17 15 23 15
6 0 18 6 26 14 27 23 68 28 75 10 5 -13 16 -8 53 30 26 25 53 46 61 46 7 0 10
5 7 10 -3 6 1 10 9 10 9 0 16 -4 16 -10 0 -19 55 -10 70 11 51 74 90 99 90 59
0 -24 19 -26 46 -5 22 16 48 20 39 5 -10 -16 28 -12 53 6 12 8 22 12 22 8 0
-4 9 1 20 11 12 10 18 25 16 32 -3 7 7 20 22 29 15 8 19 13 10 10 -10 -3 -18
-1 -18 4 0 5 11 12 25 16 13 3 29 12 36 20 6 8 19 14 28 14 9 0 27 9 41 20 18
14 28 16 38 8 9 -8 11 -7 6 6 -3 9 -2 22 4 29 14 18 25 70 12 62 -5 -3 -10 -1
-10 5 0 6 15 17 33 25 19 8 39 20 46 29 7 9 24 13 42 11 28 -4 29 -3 17 12
-11 14 -11 16 3 11 11 -4 28 6 48 28 18 19 39 34 47 34 8 0 14 5 14 10 0 6 7
10 15 10 8 0 15 5 15 11 0 8 13 9 39 5 22 -3 51 -2 65 4 18 6 26 6 26 -1 0
-10 59 26 71 44 3 5 9 7 12 5 4 -1 15 4 25 13 10 8 23 14 30 11 7 -2 12 1 12
7 0 6 7 11 14 11 8 0 27 11 42 25 28 26 44 32 44 15 0 -5 5 -10 11 -10 5 0 7
5 4 10 -3 6 2 13 12 17 22 8 43 28 43 41 0 6 7 12 15 16 8 3 15 1 15 -4 0 -6
5 -10 11 -10 5 0 7 5 3 12 -5 8 -2 9 12 3 28 -11 52 -8 69 9 12 11 23 12 48 5
21 -6 33 -6 35 1 2 5 10 10 18 10 8 0 14 8 14 18 0 13 2 14 9 4 7 -11 9 -11
14 2 4 9 14 16 23 16 9 0 23 8 31 17 8 10 12 12 8 6 -4 -9 7 -11 42 -9 41 4
49 8 56 30 5 14 12 26 16 26 4 0 7 9 8 20 1 11 -2 18 -7 15 -5 -3 -11 -1 -15
5 -3 5 1 10 10 10 9 0 13 4 10 10 -3 6 1 7 9 4 9 -3 16 -1 16 6 0 6 5 8 10 5
6 -3 10 -1 10 4 0 6 8 11 18 10 10 0 12 -3 5 -6 -18 -7 -16 -23 2 -23 8 0 15
5 15 10 0 6 9 10 19 10 11 0 23 5 26 10 3 6 15 10 26 10 11 0 27 6 35 14 15
16 20 51 5 42 -5 -3 -12 1 -15 9 -4 11 -15 14 -38 11 -45 -6 -78 -17 -78 -26
0 -4 -20 -6 -45 -6 -25 1 -45 4 -45 9 0 4 -15 7 -32 6 -28 0 -30 -2 -13 -9 17
-7 14 -9 -15 -10 -19 -1 -49 -1 -67 0 -23 1 -35 -4 -43 -21 -9 -15 -14 -18
-20 -10 -5 9 -9 8 -14 -4 -3 -9 -10 -14 -15 -11 -5 3 -14 0 -20 -8 -7 -8 -21
-12 -33 -8 -14 3 -19 1 -14 -6 5 -8 0 -12 -13 -12 -12 0 -21 -6 -21 -12 0 -9
-4 -8 -10 2 -6 10 -10 11 -10 3 0 -7 -5 -13 -12 -13 -7 0 -25 -12 -41 -27 -17
-16 -28 -21 -25 -13 5 13 -7 15 -68 14 -43 -1 -80 -6 -89 -14 -8 -7 -24 -10
-36 -7 -26 7 -69 -8 -69 -24 0 -8 5 -7 17 2 15 12 16 12 10 -4 -4 -10 -7 -23
-7 -28 0 -5 -7 -9 -15 -9 -8 0 -15 -7 -15 -15 0 -8 -7 -15 -16 -15 -8 0 -12
-4 -9 -10 4 -6 -10 -8 -34 -6 -23 2 -44 0 -47 -5 -3 -6 -14 -7 -24 -4 -11 4
-22 0 -27 -10 -10 -16 -93 -28 -93 -13 0 14 -40 8 -46 -6 -3 -8 -12 -12 -20
-9 -8 3 -14 1 -14 -5 0 -5 -11 -13 -25 -16 -14 -4 -25 -11 -25 -16 0 -5 -7 -7
-15 -4 -8 4 -15 2 -15 -4 0 -6 -19 -10 -42 -10 -24 0 -54 -5 -68 -10 -14 -5
-31 -7 -39 -4 -8 3 -11 0 -7 -7 8 -12 -48 -10 -61 2 -11 12 -24 8 -17 -5 6
-10 4 -10 -7 -1 -19 18 -30 16 -61 -10 -43 -36 -91 -60 -128 -64 -19 -2 -47
-10 -63 -18 -15 -8 -24 -9 -21 -3 4 7 2 8 -4 4 -7 -4 -12 -14 -12 -22 0 -8 -6
-14 -12 -12 -7 1 -23 -3 -35 -10 -15 -8 -23 -9 -23 -2 0 6 -14 3 -32 -7 -18
-9 -36 -16 -40 -15 -4 1 -5 -6 -2 -16 5 -14 3 -14 -10 2 -10 12 -16 15 -16 7
0 -8 -6 -11 -16 -7 -9 3 -20 3 -26 0 -6 -4 -28 -7 -50 -8 -32 -1 -38 2 -35 16
14 51 -77 7 -108 -52 -15 -29 -47 -46 -65 -35 -5 3 -10 2 -10 -3 0 -4 -16 -16
-36 -25 -23 -11 -33 -22 -28 -30 4 -6 4 -9 -1 -5 -4 4 -14 3 -22 -3 -7 -6 -13
-8 -13 -5 0 4 -9 2 -20 -4 -11 -6 -19 -14 -16 -18 2 -4 -12 -8 -32 -9 -56 -4
-95 -10 -116 -18 -10 -5 -21 -3 -25 3 -8 13 -78 -8 -90 -26 -11 -18 -61 -34
-61 -19 -1 6 -9 2 -19 -10 -11 -13 -25 -23 -33 -23 -10 0 -10 -2 1 -9 11 -7 7
-10 -14 -13 -16 -2 -31 -9 -33 -17 -3 -9 0 -11 9 -7 8 4 5 0 -5 -8 -35 -28
-51 -13 -20 18 11 11 12 21 6 33 -6 11 -7 26 -1 41 5 14 7 28 3 31 -4 3 -9 0
-11 -7 -3 -8 -9 -10 -17 -3 -7 6 -18 4 -30 -5 -11 -8 -17 -14 -12 -14 4 0 -5
-11 -19 -25 -14 -14 -25 -30 -25 -35 0 -5 -6 -15 -12 -22 -7 -8 -18 -23 -25
-33 -6 -11 -17 -19 -25 -17 -7 2 -10 0 -6 -4 4 -4 2 -14 -5 -22 -10 -13 -9
-15 10 -10 16 4 20 2 16 -8 -3 -8 -11 -14 -18 -14 -7 0 -17 -6 -23 -13 -16
-19 -88 -21 -95 -4 -6 16 -57 20 -57 5 0 -5 -4 -7 -10 -3 -5 3 -16 -7 -24 -22
-8 -15 -15 -24 -16 -20 0 11 -30 -19 -30 -30 0 -4 -17 -9 -38 -9 -52 -2 -96
-10 -118 -22 -11 -5 -26 -7 -34 -4 -8 2 -12 1 -8 -3 14 -14 -56 -57 -97 -59
-11 -1 -21 -10 -23 -21 -5 -26 -22 -46 -33 -40 -4 3 -22 -3 -39 -14 -19 -11
-27 -22 -21 -25 6 -4 17 -4 24 0 6 4 4 -2 -7 -14 -10 -12 -22 -19 -26 -17 -5
3 -10 1 -12 -4 -1 -4 -14 -11 -28 -15 -19 -6 -22 -5 -10 3 13 9 13 12 1 20 -8
5 -10 14 -6 22 6 9 3 10 -11 5 -10 -4 -35 -10 -54 -12 -19 -3 -36 -8 -38 -13
-1 -4 -25 -3 -52 3 -53 10 -84 -2 -73 -30 3 -9 -1 -14 -12 -14 -9 0 -30 -9
-46 -21 -38 -27 -64 -22 -65 14 -1 15 2 27 5 27 4 0 7 24 7 53 1 74 10 152 19
167 11 18 15 103 5 115 -13 16 -17 110 -4 108 6 -1 10 9 9 22 -2 17 1 22 11
18 18 -7 18 2 -3 33 -13 21 -14 30 -5 45 7 10 9 19 5 19 -5 0 -7 21 -7 47 1
30 -4 55 -14 66 -8 9 -12 20 -9 24 4 3 7 1 7 -5 0 -7 9 -12 20 -12 11 0 20 5
20 11 0 6 7 26 16 45 12 26 14 38 5 48 -8 10 -6 19 10 40 11 14 23 43 25 64 6
49 12 81 20 114 5 21 1 30 -19 42 -30 21 -87 18 -87 -4 0 -8 -13 -26 -30 -40
l-30 -25 17 -35 c10 -19 25 -42 35 -51 16 -15 16 -17 0 -40 -9 -13 -15 -26
-13 -29 26 -40 20 -67 -26 -117 -31 -33 -53 -30 -53 9 0 10 -5 18 -11 18 -5 0
-9 12 -8 28 3 45 0 62 -14 62 -14 0 -42 -57 -41 -83 1 -14 -2 -15 -12 -6 -10
8 -14 8 -14 1 0 -7 -8 -9 -17 -5 -16 6 -16 5 -4 -10 7 -9 17 -15 21 -12 4 3
13 -2 20 -11 11 -12 15 -12 21 -2 7 10 9 9 9 -3 0 -9 -3 -18 -6 -22 -9 -9 -35
4 -28 14 3 5 0 9 -5 9 -6 0 -11 -6 -11 -14 0 -22 -19 -30 -36 -15 -9 7 -12 20
-8 33 6 19 5 20 -11 6 -17 -14 -17 -14 -6 8 7 14 8 22 1 22 -6 0 -8 17 -3 47
3 27 5 64 4 83 -1 19 -3 62 -4 95 l-2 60 62 0 c34 -1 60 2 58 5 -1 3 3 11 11
18 8 7 14 10 14 6 0 -4 9 2 20 14 11 12 20 33 20 47 0 14 5 25 11 25 5 0 7 4
4 10 -9 15 59 12 73 -2 10 -10 15 -10 20 -1 4 7 36 13 71 15 47 2 67 8 75 20
8 14 13 15 25 5 12 -9 13 -9 7 1 -4 7 -1 12 8 12 9 0 16 5 16 10 0 7 6 6 18
-1 13 -8 27 -6 57 7 22 10 43 17 48 16 4 -1 7 5 7 14 0 8 4 13 9 10 5 -3 12 1
15 10 3 8 10 13 16 9 5 -3 22 2 37 12 15 10 30 17 33 17 3 -1 10 0 15 1 89 22
121 22 158 2 32 -18 41 -19 58 -9 11 7 24 10 29 7 6 -4 13 1 16 10 6 13 9 14
16 3 7 -10 12 -8 27 10 11 12 24 22 29 22 6 0 14 9 17 21 4 11 9 18 13 15 3
-3 20 5 38 19 18 14 36 25 39 25 4 0 20 9 36 21 16 11 29 17 29 13 0 -3 6 -2
13 4 12 10 35 17 100 29 18 4 26 11 25 21 -2 11 8 18 30 23 26 5 32 4 28 -7
-3 -8 -1 -14 5 -14 5 0 14 -10 20 -23 11 -23 39 -33 39 -14 0 6 3 7 6 4 6 -6
46 31 83 79 21 27 71 43 71 23 0 -10 3 -10 12 -1 7 7 22 12 34 12 13 0 29 7
38 15 8 8 22 15 31 15 8 0 18 6 21 14 3 8 13 12 22 9 21 -5 92 23 92 37 0 6 6
10 13 10 7 0 17 8 24 19 10 16 40 26 108 34 26 3 86 48 79 59 -5 8 -1 9 56 11
19 1 37 4 40 7 12 13 105 70 117 71 27 3 31 4 38 11 4 4 13 4 21 1 8 -3 21 0
29 7 8 7 32 13 54 13 21 1 37 5 34 10 -4 7 26 11 61 7 26 -2 66 20 66 37 0 8
5 11 11 8 5 -4 19 1 30 11 10 9 30 19 44 20 26 3 55 25 55 43 0 12 37 24 50
16 5 -3 10 -3 10 2 0 4 17 9 37 11 46 3 166 60 157 74 -5 7 2 9 20 4 18 -4 25
-3 24 6 -2 7 2 12 9 11 6 -2 14 5 17 15 3 10 16 24 28 32 11 8 28 23 37 33 21
23 48 22 56 -3 4 -11 11 -18 16 -15 5 4 9 -3 9 -15 0 -12 -4 -19 -8 -16 -4 2
-8 -4 -8 -14 0 -10 4 -16 8 -14 4 3 8 -2 8 -10 0 -8 9 -18 20 -21 16 -5 32 6
75 52 30 31 55 62 55 67 0 5 3 6 7 3 9 -9 34 13 27 24 -3 5 -1 9 5 9 5 0 12
-6 14 -12 3 -8 6 -5 6 5 1 10 6 15 11 12 6 -4 9 -1 8 7 -2 7 3 12 10 10 6 -1
12 3 12 9 0 6 7 8 17 5 9 -4 19 -2 23 4 4 7 30 7 81 0 74 -9 74 -9 102 20 15
16 27 36 27 45 0 8 6 18 14 21 8 3 13 11 10 19 -3 7 2 15 10 18 9 4 16 1 16
-6 1 -7 6 -5 14 6 7 9 18 17 24 17 23 0 62 51 62 80 0 17 5 30 11 30 6 0 9 7
5 15 -3 8 -1 15 4 15 6 0 10 6 10 13 0 8 11 24 25 37 14 13 25 29 25 35 0 7
10 20 22 31 12 10 18 13 14 7 -17 -29 3 -10 33 32 30 42 31 46 18 72 -8 15
-12 34 -10 40 3 7 -2 16 -11 19 -9 3 -16 17 -16 30 0 13 -8 32 -18 42 -10 10
-18 28 -17 40 1 11 -3 20 -9 19 -6 -1 -10 3 -9 8 1 10 -29 43 -34 38 -9 -8
-24 -1 -22 10 3 19 -12 48 -22 41 -5 -3 -9 -2 -8 3 6 33 -2 51 -21 46 -15 -4
-20 0 -20 16 0 11 -5 21 -10 21 -6 0 -16 11 -22 25 -6 14 -16 24 -22 22 -6 -2
-19 9 -29 25 -10 17 -22 26 -29 22 -6 -4 -8 -3 -5 3 4 6 -9 28 -28 48 -19 21
-32 42 -29 47 3 4 -1 8 -9 8 -16 0 -31 27 -28 48 2 10 -18 17 -41 13 -5 0 -8
6 -8 15 0 9 -16 32 -35 51 -19 19 -35 41 -35 49 0 8 -6 11 -15 8 -8 -4 -15 -1
-15 5 0 6 -13 17 -29 26 -19 9 -32 25 -36 45 -4 18 -18 37 -36 47 -16 10 -27
23 -25 30 3 7 2 12 -2 11 -14 -4 -51 23 -57 42 -4 11 -11 18 -16 15 -5 -4 -9
0 -9 8 0 8 -9 17 -20 20 -11 3 -20 14 -20 25 0 11 -7 25 -15 32 -8 7 -15 9
-15 6 0 -4 -7 0 -16 8 -8 9 -22 16 -30 16 -10 0 -12 5 -8 13 5 8 2 8 -9 -2
-15 -12 -17 -11 -17 3 0 9 -5 16 -11 16 -6 0 -20 10 -31 23 -11 12 -17 16 -13
10 3 -7 2 -13 -3 -13 -6 0 -13 7 -16 16 -3 8 -10 12 -16 9 -6 -4 -10 5 -10 21
0 29 -49 84 -75 84 -9 0 -13 4 -10 10 3 6 -1 10 -9 10 -9 0 -16 8 -16 17 0 9
-3 14 -6 11 -6 -7 -44 27 -44 40 0 4 -11 16 -25 26 -14 10 -25 23 -25 28 0 15
-28 39 -42 36 -8 -2 -12 4 -10 16 2 10 -1 15 -7 12 -5 -4 -14 1 -19 10 -6 11
-11 13 -16 5 -11 -16 -26 -13 -20 4 4 8 1 15 -4 15 -13 0 -62 47 -62 59 0 4
-11 13 -25 19 -13 6 -31 26 -38 44 -8 18 -24 41 -35 52 -12 10 -19 24 -15 30
3 6 3 8 -2 4 -9 -8 -55 53 -55 73 0 6 -7 8 -17 5 -10 -4 -14 -4 -11 0 4 3 -3
15 -15 25 -12 10 -19 18 -15 19 11 0 -24 40 -35 40 -4 0 -5 -5 -2 -11 4 -6 -2
-5 -13 2 -12 7 -19 15 -17 18 3 2 -6 14 -20 26 -13 13 -21 25 -18 29 3 3 -7
18 -23 34 -36 36 -68 82 -71 102 -7 55 -15 78 -31 92 -31 29 -43 48 -32 48 7
0 7 6 1 18 -8 14 -27 130 -35 212 -2 14 -6 35 -10 48 -4 12 -3 22 2 22 4 0 7
16 6 35 -2 22 2 38 9 41 7 2 14 23 16 46 1 23 4 45 7 49 2 4 0 10 -6 14 -15 9
-12 51 5 65 9 7 14 19 11 25 -2 7 1 18 7 24 16 16 19 192 3 223 -7 13 -16 36
-19 50 -6 21 -15 28 -47 33 -22 4 -40 11 -40 16 0 5 -7 9 -15 9 -8 0 -15 4
-15 9 0 11 -71 46 -86 43 -13 -2 -37 46 -29 58 3 5 1 11 -4 15 -14 8 28 55 45
48 20 -7 12 48 -9 61 -12 8 -22 8 -37 -2 -23 -14 -33 -16 -26 -3 4 5 -8 12
-25 16 -21 5 -36 2 -48 -9 -19 -17 -75 -17 -102 0 -8 4 -26 7 -40 6 -14 -2
-31 3 -38 11 -19 23 -22 57 -6 64 10 3 15 20 15 47 0 39 23 91 56 124 18 18
13 37 -9 36 -9 -1 -24 -2 -32 -3 -8 0 -15 -7 -15 -15 0 -17 -26 -30 -62 -31
-22 0 -30 5 -37 28 -7 17 -7 25 -1 22 6 -4 10 0 10 8 0 14 20 27 41 27 5 0 9
-6 9 -14 0 -9 7 -12 20 -9 30 8 41 28 44 75 4 58 12 73 49 91 33 16 86 32 100
29 4 -1 7 2 7 7 0 17 33 21 61 9 16 -7 29 -16 29 -20 0 -9 32 2 45 16 6 6 10
25 10 41 0 19 7 34 20 42 11 7 14 12 8 13 -7 0 -13 4 -13 9 0 6 8 9 19 8 10 0
18 -8 17 -17 -1 -9 9 -16 28 -18 18 -2 26 0 21 7 -3 7 2 11 14 11 13 0 21 7
21 17 0 15 115 133 131 133 3 0 9 9 12 20 3 11 13 23 24 27 10 4 24 13 31 20
7 7 19 13 25 13 7 0 6 -4 -3 -10 -9 -6 -10 -10 -3 -10 6 0 15 5 18 10 4 6 11
8 16 5 5 -3 6 0 4 7 -4 9 2 14 16 15 11 1 32 13 45 26 14 14 34 27 45 30 12 3
18 3 15 0 -3 -3 4 -14 16 -25 21 -18 22 -18 34 12 7 16 18 30 24 30 5 0 10 5
10 11 0 19 31 36 56 31 13 -2 24 -10 24 -17 0 -18 39 -65 55 -65 13 0 39 52
40 81 0 21 50 79 68 79 6 0 21 18 31 40 11 22 23 40 29 40 5 0 7 7 4 15 -4 8
-2 17 4 21 6 3 8 12 5 20 -3 7 -1 16 4 19 4 3 10 0 12 -7 3 -8 12 -4 26 10 19
19 33 26 53 24 3 -1 18 10 34 24 15 13 32 24 36 24 5 0 5 8 2 17 -5 12 -2 15
10 10 9 -3 19 -2 21 2 3 4 29 4 57 0 56 -9 69 -6 69 17 0 8 5 14 10 14 6 0 10
7 10 15 0 8 7 15 16 15 9 0 18 8 20 18 10 35 103 68 119 42 4 -6 11 -8 16 -4
6 3 9 -2 7 -12 -2 -15 3 -19 27 -19 40 0 57 -12 53 -38 -1 -12 1 -27 5 -33 4
-7 -2 -14 -16 -18 l-22 -6 25 -13 c20 -11 26 -11 28 0 4 15 22 18 22 3 0 -5 9
-10 20 -10 17 0 19 -4 14 -27 -7 -29 -43 -65 -56 -57 -4 3 -8 -2 -8 -11 0 -9
-7 -27 -16 -40 -10 -16 -14 -34 -10 -50 6 -22 9 -24 26 -15 11 6 20 8 20 4 0
-3 6 -2 13 4 12 10 95 28 110 24 5 -2 6 1 3 6 -3 5 10 15 29 22 22 9 35 20 35
32 0 12 8 18 24 18 16 0 27 7 31 20 4 11 26 37 50 56 29 24 42 43 40 55 -2 12
2 19 11 19 8 0 14 7 14 16 0 14 8 16 51 10 29 -4 48 -3 45 2 -3 5 5 7 17 5 14
-3 29 2 36 11 8 9 10 16 6 16 -4 0 13 16 37 35 23 19 47 39 53 43 6 5 24 3 42
-4 25 -11 33 -11 36 -1 4 7 6 8 6 1 1 -13 51 -6 51 8 0 5 10 0 22 -12 27 -25
37 -22 58 16 9 16 21 29 26 30 5 0 21 6 37 12 23 10 27 17 27 52 0 22 5 40 10
40 6 0 10 7 10 15 0 9 9 25 19 36 18 20 20 20 45 4 24 -16 26 -16 20 -1 -4 9
-1 16 6 16 7 0 21 11 32 25 15 19 27 24 52 22 20 -1 32 -7 29 -13 -5 -15 27
-23 52 -13 11 4 16 8 11 8 -5 1 -3 7 3 15 13 16 8 75 -7 85 -15 10 -7 70 12
84 14 11 15 17 6 42 -6 16 -14 46 -16 67 -6 38 0 46 38 52 7 1 22 7 33 13 18
10 18 15 6 80 -10 52 -20 73 -40 89 -28 24 -33 51 -13 72 15 16 16 79 1 84 -5
2 -11 10 -13 18 -1 8 -8 25 -15 38 -11 20 -10 26 3 41 17 19 22 66 7 75 -5 3
-12 18 -16 33 -7 31 -65 101 -65 79 0 -7 7 -17 16 -20 9 -3 12 -11 8 -18 -5
-7 -7 -25 -6 -40 1 -15 -4 -43 -12 -62 -11 -26 -11 -36 -3 -40 9 -3 8 -5 -1
-5 -7 -1 -15 6 -18 14 -5 12 -9 13 -20 4 -8 -7 -17 -9 -21 -5 -3 3 -1 6 6 6 7
0 3 9 -10 20 -13 10 -20 19 -15 20 5 0 3 6 -3 14 -9 11 -10 25 -2 50 l9 36
-37 -6 c-34 -5 -41 -2 -94 47 -44 40 -57 59 -57 81 0 16 4 27 9 24 5 -3 12 6
16 21 7 28 0 36 -72 94 -7 5 -14 21 -14 34 -2 44 -4 48 -16 52 -6 2 -14 -5
-18 -17 -6 -19 -11 -16 -60 35 -30 30 -57 55 -62 55 -4 0 -1 -5 7 -10 8 -5 10
-10 4 -10 -6 0 -17 7 -24 15 -7 8 -18 15 -25 15 -7 0 -15 9 -18 20 -6 23 8 27
17 5 6 -16 26 -21 26 -6 0 16 -31 42 -41 35 -6 -3 -20 1 -32 9 -12 7 -34 17
-48 20 -14 4 -43 24 -65 46 -25 24 -58 44 -84 51 -24 6 -58 26 -75 43 -41 41
-73 67 -83 67 -4 0 -14 9 -22 21 -8 11 -32 28 -52 36 -24 9 -35 20 -31 27 4 7
1 6 -9 -2 -13 -10 -20 -7 -46 19 -25 25 -36 30 -57 25 -28 -7 -43 3 -64 43
-14 25 -11 25 -138 7 -15 -2 -35 9 -60 35 -37 37 -77 51 -85 28 -6 -19 -56 12
-72 46 -18 38 -42 60 -50 47 -3 -6 1 -15 9 -22 16 -13 21 -40 7 -40 -4 0 -12
10 -17 23 -6 12 -16 21 -23 20 -7 -2 -12 1 -12 7 0 6 -8 10 -17 10 -28 0 -83
23 -83 35 0 6 -12 22 -26 34 -19 16 -36 22 -64 20 -22 -2 -42 0 -46 4 -4 4
-16 7 -26 7 -10 0 -18 4 -18 9 0 5 -6 8 -12 8 -25 -1 -78 16 -78 24 0 5 -5 9
-11 9 -6 0 -17 7 -25 15 -13 13 -42 20 -66 16 -55 -8 -77 -8 -73 0 9 13 -72
84 -99 86 -13 1 -28 -3 -34 -9z m-168 -138 c8 -8 -15 -40 -28 -40 -12 0 -46
35 -46 48 0 10 8 12 33 7 17 -4 36 -11 41 -15z m301 2 c-3 -3 -11 0 -18 7 -9
10 -8 11 6 5 10 -3 15 -9 12 -12z m-8933 -1627 c3 -14 1 -25 -3 -25 -5 0 -9
11 -9 25 0 14 2 25 4 25 2 0 6 -11 8 -25z m11165 -330 c-4 -8 -2 -17 3 -20 12
-7 1 -36 -19 -53 -14 -11 -14 -11 2 -6 14 5 12 0 -8 -20 -24 -24 -54 -28 -39
-5 3 5 10 7 16 3 5 -3 9 2 8 12 -4 38 0 61 18 82 20 25 26 28 19 7z m-1430
-487 c-3 -8 -6 -5 -6 6 -1 11 2 17 5 13 3 -3 4 -12 1 -19z m358 -8 c-4 -6 6
-10 24 -10 16 0 37 -7 45 -16 9 -8 20 -12 26 -9 5 3 10 1 10 -4 0 -6 -9 -11
-19 -11 -12 0 -21 -8 -23 -22 -4 -29 -28 -35 -35 -9 -4 17 -8 19 -19 10 -8 -6
-14 -17 -14 -24 0 -7 -7 -15 -15 -19 -11 -4 -15 2 -15 24 0 17 5 30 11 30 5 0
8 4 5 9 -7 10 10 61 19 61 4 0 3 -4 0 -10z m-1207 -260 c8 0 12 -3 9 -7 -4 -3
-3 -11 2 -17 18 -23 22 -73 7 -89 -8 -8 -13 -17 -10 -20 11 -11 -17 -47 -37
-47 -11 0 -17 -4 -14 -10 3 -6 -4 -10 -16 -10 -12 0 -19 -3 -16 -7 4 -3 -2
-11 -12 -17 -10 -6 -28 -17 -39 -23 -18 -11 -24 -9 -52 17 -29 27 -31 34 -26
68 4 20 8 51 9 67 2 31 42 86 61 83 6 0 23 4 38 10 15 6 34 9 42 6 8 -3 18 0
22 7 6 10 9 10 12 1 2 -7 11 -12 20 -12z m-6085 -644 c7 -17 -2 -56 -13 -56
-10 0 -31 50 -25 61 9 14 32 11 38 -5z m5229 -417 c-12 -11 -20 -24 -17 -30 4
-5 2 -9 -4 -9 -5 0 -13 5 -16 10 -3 6 -2 10 4 10 5 0 13 9 16 20 3 11 14 20
23 20 13 0 11 -4 -6 -21z m-839 -69 c-7 -27 -20 -33 -27 -14 -7 18 11 47 24
39 5 -3 6 -14 3 -25z m200 -83 c-3 -4 0 -14 7 -22 6 -8 7 -16 2 -19 -6 -3 -15
1 -22 9 -7 8 -16 12 -21 9 -5 -3 -2 -12 6 -21 14 -14 13 -17 -10 -39 -25 -23
-34 -41 -15 -29 6 4 3 -10 -7 -29 -9 -20 -22 -36 -28 -36 -6 0 -16 -5 -23 -12
-14 -14 -45 -20 -37 -8 3 5 0 12 -6 16 -6 3 -15 0 -20 -7 -5 -9 -3 -17 6 -22
20 -11 19 -27 -2 -27 -15 0 -16 -2 -3 -10 8 -5 11 -12 7 -16 -4 -4 -12 -3 -18
3 -15 15 -20 61 -9 68 5 3 7 12 3 20 -3 10 1 15 12 15 9 0 14 4 10 10 -3 5 4
19 15 30 11 11 18 26 14 32 -4 7 -3 8 4 4 7 -4 12 -1 12 6 0 8 9 14 20 15 18
2 19 0 5 -13 -19 -19 -19 -25 -1 -18 16 6 36 47 36 77 0 16 3 19 9 8 7 -11 13
-11 32 3 13 10 17 16 9 14 -9 -2 -15 2 -15 7 0 6 3 9 8 8 4 -2 7 3 8 10 0 6 4
3 8 -8 5 -11 6 -24 4 -28z m-4258 -7 c3 -5 1 -10 -4 -10 -6 0 -11 5 -11 10 0
6 2 10 4 10 3 0 8 -4 11 -10z m35 0 c0 -5 -5 -10 -11 -10 -5 0 -7 5 -4 10 3 6
8 10 11 10 2 0 4 -4 4 -10z m5214 -15 c3 -8 1 -15 -4 -15 -6 0 -10 7 -10 15 0
8 2 15 4 15 2 0 6 -7 10 -15z m-1219 -231 c-10 -25 -11 -34 -2 -37 7 -3 -5 -4
-25 -4 -24 1 -38 6 -38 14 0 7 5 13 10 13 6 0 13 8 17 18 3 9 13 25 21 35 23
26 34 1 17 -39z m-75 -64 c0 -5 -5 -10 -11 -10 -5 0 -7 5 -4 10 3 6 8 10 11
10 2 0 4 -4 4 -10z m-30 -31 c0 -6 6 -9 13 -6 8 3 14 -1 14 -8 0 -7 -6 -11
-13 -8 -9 3 -12 -6 -10 -31 2 -20 -1 -36 -5 -36 -5 0 -9 -7 -9 -15 0 -8 -4
-15 -10 -15 -5 0 -10 8 -10 18 0 14 -2 14 -9 3 -5 -8 -7 -20 -4 -28 3 -7 -2
-13 -11 -13 -9 0 -16 -4 -16 -10 0 -5 -6 -7 -14 -4 -16 6 -21 84 -6 84 5 0 6
10 2 22 -3 14 -1 19 6 14 6 -3 23 5 38 19 29 27 44 32 44 14z m-131 -145 c-10
-12 -9 -13 3 -9 27 10 38 -17 18 -43 -16 -20 -22 -21 -47 -10 -15 6 -34 10
-40 9 -16 -2 -16 7 0 23 13 14 40 10 31 -5 -3 -5 0 -9 5 -9 14 0 14 17 2 25
-14 8 -9 45 5 45 7 0 15 8 20 18 7 15 8 14 12 -6 2 -13 -2 -30 -9 -38z m364
36 c3 -11 12 -20 21 -20 11 0 15 -8 14 -24 -1 -14 -6 -22 -10 -20 -5 3 -5 10
-2 16 4 7 2 8 -4 4 -15 -9 -16 -46 -2 -46 6 0 10 -4 10 -9 0 -5 -8 -8 -17 -6
-11 1 -18 11 -17 24 1 23 -12 29 -19 9 -2 -7 -7 -10 -11 -6 -11 9 -15 58 -5
52 5 -3 10 0 10 5 1 6 3 16 4 21 1 6 3 12 4 15 3 13 19 3 24 -15z m87 -202 c0
-3 3 -14 7 -24 4 -11 3 -15 -5 -10 -6 4 -17 -5 -25 -21 -14 -26 -15 -26 -21
-5 -4 13 -13 19 -21 16 -8 -3 -21 0 -28 8 -15 15 -19 48 -5 48 4 0 8 6 8 13 0
7 10 17 23 22 18 9 26 6 44 -15 13 -14 23 -28 23 -32z m-166 33 c17 -11 33
-18 37 -15 4 2 5 -5 2 -15 -3 -10 1 -30 8 -42 7 -13 12 -28 11 -33 -2 -5 1
-12 7 -15 5 -3 12 -26 14 -51 7 -60 17 -91 28 -84 5 3 9 -3 9 -13 0 -29 25
-59 35 -43 4 7 3 15 -3 19 -6 4 -7 12 -3 19 6 10 11 10 21 -3 7 -8 9 -15 5
-15 -4 0 4 -12 18 -26 15 -15 24 -30 21 -35 -2 -5 2 -22 11 -40 9 -17 14 -37
11 -46 -10 -24 15 -103 35 -114 11 -5 19 -14 19 -20 0 -6 11 -25 24 -42 13
-18 27 -43 31 -57 4 -14 12 -30 17 -37 5 -7 6 -18 2 -24 -5 -8 -3 -9 6 -4 8 5
11 3 8 -5 -5 -15 25 -50 42 -50 6 0 10 -7 10 -15 0 -7 8 -19 18 -24 9 -6 14
-11 9 -11 -4 0 6 -14 22 -31 17 -17 38 -56 49 -87 10 -30 27 -60 38 -66 10 -6
33 -21 51 -33 17 -13 36 -23 41 -23 13 0 45 -76 38 -89 -4 -6 -1 -9 6 -6 15 6
19 -37 6 -51 -16 -16 -7 -69 15 -90 35 -34 97 -66 97 -51 1 6 7 -3 15 -20 8
-18 19 -33 25 -33 7 0 10 -5 8 -11 -2 -6 12 -27 30 -45 21 -21 32 -40 28 -50
-3 -8 -2 -12 4 -9 6 3 10 1 10 -5 0 -22 102 -130 123 -130 8 0 17 -13 21 -30
4 -21 11 -30 25 -30 30 0 51 -11 51 -27 0 -14 24 -44 35 -43 20 1 25 -2 25
-15 0 -8 9 -15 20 -15 11 0 20 -5 20 -10 0 -6 11 -16 25 -22 14 -6 25 -19 25
-30 0 -11 7 -18 20 -18 10 0 24 -9 30 -20 6 -11 20 -20 31 -20 15 0 19 -5 15
-16 -3 -8 -2 -13 3 -10 4 3 20 -8 36 -24 15 -16 40 -34 56 -40 19 -8 26 -17
22 -28 -4 -10 -2 -13 5 -8 7 4 12 3 12 -2 0 -5 11 -15 25 -22 13 -7 23 -16 22
-20 -3 -11 56 -60 73 -61 10 0 11 -2 3 -6 -7 -2 -13 -9 -13 -14 0 -6 6 -7 13
-3 6 4 -3 -7 -20 -24 -36 -35 -48 -40 -39 -17 3 8 1 15 -3 15 -5 0 -11 -7 -15
-15 -3 -8 -12 -15 -21 -15 -8 0 -15 -5 -15 -11 0 -5 -4 -7 -10 -4 -9 5 -76
-37 -91 -58 -3 -5 -9 -8 -13 -8 -16 1 -36 -13 -36 -25 0 -17 -22 -18 -38 -2
-9 9 -12 9 -12 0 0 -7 -7 -12 -15 -12 -8 0 -15 -5 -15 -11 0 -5 -4 -7 -10 -4
-5 3 -10 1 -10 -4 0 -6 -9 -11 -20 -11 -11 0 -20 -4 -20 -9 0 -5 -16 -12 -36
-15 -19 -4 -38 -14 -41 -22 -4 -12 -8 -12 -21 -2 -13 11 -14 11 -7 -1 6 -11 4
-13 -10 -8 -9 4 -23 3 -30 -3 -11 -9 -89 -28 -140 -35 -18 -2 -20 -9 -18 -63
1 -46 -2 -62 -11 -62 -8 0 -19 -7 -26 -15 -7 -8 -16 -12 -21 -9 -5 3 -9 1 -9
-4 0 -9 -46 -35 -65 -37 -5 0 -9 -8 -7 -17 2 -11 -7 -17 -31 -20 -27 -3 -33 0
-35 16 0 10 -6 22 -12 26 -15 9 -3 57 16 64 8 3 14 10 14 15 0 12 -24 8 -43
-7 -8 -7 -21 -10 -30 -6 -10 3 -21 -5 -33 -25 -10 -17 -24 -31 -31 -31 -7 0
-13 -6 -13 -14 0 -15 -21 -26 -51 -26 -10 0 -19 -4 -19 -9 0 -5 -8 -8 -17 -7
-22 1 -64 -75 -45 -82 7 -2 9 -8 6 -13 -3 -6 -8 -25 -11 -42 -6 -38 -22 -60
-39 -53 -7 3 -14 -4 -16 -16 -2 -15 -13 -24 -35 -30 -18 -5 -33 -14 -33 -21 0
-8 -14 -11 -40 -11 -22 1 -40 -2 -40 -8 0 -6 -16 -7 -39 -3 -33 5 -43 3 -61
-15 -18 -18 -24 -20 -31 -9 -6 11 -9 10 -14 -2 -3 -9 -11 -16 -18 -16 -7 0
-19 -4 -28 -7 -9 -4 -23 -1 -30 6 -15 14 -103 22 -94 8 7 -12 -21 -20 -32 -9
-6 6 -16 2 -28 -11 -15 -17 -16 -20 -3 -20 13 0 14 -6 6 -40 -6 -22 -16 -40
-24 -40 -7 0 -15 -9 -19 -19 -8 -26 -39 -35 -65 -19 -18 11 -23 11 -30 -3 -8
-13 -21 -16 -69 -12 -58 5 -61 4 -95 -31 -22 -21 -36 -30 -36 -21 0 17 -45 21
-55 5 -3 -5 0 -10 7 -10 10 0 10 -2 -1 -9 -8 -5 -20 -7 -28 -4 -8 3 -25 -5
-38 -17 -13 -12 -30 -20 -38 -17 -8 3 -27 -1 -42 -9 -38 -20 -44 -18 -39 11 3
17 0 25 -9 25 -15 0 -16 38 -1 48 14 10 11 31 -6 42 -12 7 -15 35 -15 142 0
73 -4 139 -8 146 -5 6 -6 16 -2 21 3 5 1 12 -5 16 -7 4 -7 12 0 26 6 10 10 34
8 51 -1 18 6 44 15 58 15 23 22 94 8 86 -3 -2 -7 13 -7 35 -1 21 2 36 6 34 5
-3 11 3 14 13 8 25 4 102 -5 102 -4 0 -5 21 -2 48 3 26 5 52 4 57 -1 6 -2 26
-4 45 -1 19 -6 41 -11 49 -6 10 -5 12 2 7 7 -4 12 -3 12 2 0 6 -6 12 -14 15
-23 9 -26 47 -5 68 26 26 48 132 43 209 -2 32 1 62 6 65 5 3 7 15 5 27 -4 21
61 158 75 158 4 0 5 11 3 23 -3 14 2 31 12 40 9 10 14 17 11 17 -3 0 2 9 11
20 10 11 23 20 30 20 7 0 13 9 13 20 0 11 4 20 8 20 4 0 8 10 9 22 1 11 6 24
10 27 4 3 9 17 11 31 7 65 3 89 -19 114 -25 29 -28 37 -34 115 -3 35 0 59 7
69 11 13 10 14 -9 8 -15 -5 -25 -1 -35 13 -10 14 -21 18 -36 14 -12 -3 -19 -9
-16 -14 3 -5 1 -9 -4 -9 -5 0 -14 12 -21 26 -9 20 -17 25 -34 20 -13 -3 -32 1
-43 9 -13 9 -25 10 -35 4 -20 -12 -29 -11 -29 4 0 7 -9 23 -21 35 -11 13 -21
31 -22 42 -1 11 -11 21 -24 25 -13 3 -43 26 -67 50 -44 46 -63 56 -52 30 10
-28 -19 -15 -55 25 -20 22 -34 41 -32 44 6 6 -32 17 -48 14 -8 -2 -20 -9 -28
-16 -12 -11 -16 -8 -29 18 -15 31 -33 35 -40 9 -3 -11 -2 -11 7 1 7 9 11 10
11 3 0 -17 -19 -26 -24 -11 -21 67 -7 102 36 90 20 -5 21 -3 10 11 -12 14 -11
16 7 14 11 0 18 -4 15 -8 -2 -4 0 -10 6 -14 5 -3 10 -15 10 -26 0 -16 5 -18
31 -14 30 5 31 4 27 -25 -5 -34 -5 -34 24 -19 15 8 19 8 14 0 -4 -6 -4 -11 1
-11 10 0 39 61 35 74 -2 5 4 6 11 3 11 -4 13 0 10 14 -4 13 0 19 11 19 10 0
26 5 37 11 16 8 18 13 8 25 -13 16 2 19 18 3 8 -8 6 -16 -8 -30 -23 -23 -25
-43 -4 -35 9 3 25 0 37 -7 16 -10 22 -9 25 1 3 7 16 26 30 42 14 17 21 30 16
30 -4 0 -1 6 7 13 8 7 22 25 30 41 8 16 31 40 50 55 50 38 73 65 86 103 7 19
19 25 54 24 29 -1 66 39 62 65 -2 12 6 19 27 24 23 5 28 10 24 23 -6 15 -5 15
10 3 15 -12 17 -12 11 3 -5 14 -2 16 20 12 14 -3 26 0 26 5 0 6 4 8 8 5 5 -3
15 6 22 20 8 13 20 22 27 20 7 -3 15 4 19 19 3 13 12 26 20 29 7 3 11 12 8 20
-3 8 5 27 20 42 14 15 22 32 19 38 -4 6 2 4 12 -4 17 -13 18 -13 13 1 -4 10 6
23 28 38 19 13 34 30 34 37 0 8 6 14 14 14 8 0 18 9 21 20 3 11 15 20 26 20
10 0 19 7 19 15 0 20 19 19 54 -4z m-553 -270 c-26 -26 -31 -26 -24 -1 3 11 9
18 13 15 5 -3 12 0 15 6 4 5 9 8 12 5 2 -2 -5 -14 -16 -25z m-2351 -256 c0 -8
-2 -15 -4 -15 -2 0 -6 7 -10 15 -3 8 -1 15 4 15 6 0 10 -7 10 -15z m2187
-1647 c-3 -8 -6 -5 -6 6 -1 11 2 17 5 13 3 -3 4 -12 1 -19z m31 -215 c-6 -7
-12 -13 -13 -13 -2 0 -5 6 -8 13 -3 7 3 13 14 13 13 0 15 -3 7 -13z m-60 -57
c18 -11 15 -71 -5 -89 -16 -13 -20 -13 -31 -1 -7 8 -9 14 -5 14 4 0 3 4 -3 8
-6 4 -9 23 -7 43 5 36 21 44 51 25z m1896 -166 c14 -5 26 -14 26 -20 0 -17
-34 -50 -51 -50 -10 0 -19 -4 -21 -10 -1 -5 -12 -11 -23 -13 -11 -2 -33 -9
-48 -15 -20 -9 -34 -9 -47 -2 -16 9 -18 8 -14 -5 5 -13 2 -15 -19 -10 -14 4
-35 1 -47 -5 -19 -10 -26 -9 -44 10 -11 12 -16 20 -11 19 6 -1 27 6 48 15 21
9 47 14 58 11 13 -4 19 -2 19 9 0 19 11 25 48 30 16 1 39 13 51 25 23 23 38
26 75 11z m-218 -180 c8 0 19 -12 24 -26 13 -32 12 -37 0 -29 -5 3 -10 1 -10
-5 0 -6 -4 -8 -10 -5 -5 3 -10 -1 -10 -9 0 -10 -9 -16 -22 -16 -24 0 -63 20
-40 20 6 0 12 6 12 14 0 8 5 18 12 22 7 5 8 3 3 -6 -5 -8 -4 -11 3 -6 6 4 9
13 5 21 -3 8 -2 27 3 43 7 25 8 26 11 5 3 -13 11 -23 19 -23z m-306 -19 c0 -5
-7 -12 -16 -15 -10 -4 -13 -13 -9 -28 4 -13 3 -18 -2 -12 -4 7 -19 14 -33 16
-23 4 -24 5 -5 13 11 5 26 15 33 22 15 15 32 17 32 4z m105 -191 c-2 -11 1
-23 7 -26 6 -4 8 -3 5 3 -4 6 0 14 9 17 19 7 64 -39 64 -66 0 -13 4 -17 13
-12 6 4 5 -1 -4 -12 -9 -10 -14 -26 -11 -34 5 -13 3 -13 -12 -1 -14 12 -19 11
-36 -4 -11 -10 -20 -13 -20 -7 0 7 -11 12 -25 12 -18 0 -23 4 -19 15 5 11 2
13 -10 9 -9 -3 -16 -11 -16 -16 0 -6 -9 -8 -20 -5 -17 4 -20 2 -15 -13 8 -26
-13 -63 -31 -56 -9 3 -12 1 -9 -4 3 -6 -3 -10 -14 -10 -23 0 -24 -3 -15 -49 4
-17 10 -28 15 -25 5 3 9 0 9 -5 0 -6 -5 -11 -11 -11 -8 0 -8 -4 -1 -12 5 -7
12 -22 14 -33 1 -11 7 -23 13 -27 6 -5 6 -11 -2 -19 -9 -9 -7 -16 7 -31 10
-11 16 -26 14 -33 -3 -7 0 -16 7 -20 9 -6 10 -1 7 19 -3 14 -1 26 5 26 6 0 8
3 4 6 -3 3 8 19 24 35 35 34 102 65 107 49 5 -14 35 -13 51 3 11 9 14 9 18 0
3 -9 11 -6 26 8 12 11 27 17 35 14 7 -2 11 -1 8 4 -3 5 1 14 9 21 12 10 15 9
15 -4 0 -9 5 -16 11 -16 29 0 -66 -119 -98 -121 -10 -1 -29 -2 -43 -3 -15 -1
-29 -10 -36 -24 -6 -13 -15 -24 -20 -25 -5 -1 -8 -5 -7 -9 2 -4 -4 -5 -12 -2
-8 4 -15 1 -15 -5 0 -5 -18 -15 -40 -21 -37 -10 -43 -9 -60 12 -11 13 -19 27
-20 32 0 5 -6 3 -13 -3 -8 -6 -17 -8 -20 -4 -4 3 -7 1 -7 -5 0 -6 -7 -9 -15
-6 -10 4 -15 0 -16 -12 0 -18 -1 -17 -9 1 -5 11 -9 14 -9 8 -1 -7 -7 -13 -15
-13 -14 0 -30 -29 -21 -38 3 -3 16 1 30 8 27 14 41 9 33 -12 -3 -7 -6 -17 -6
-21 0 -5 -12 -19 -26 -32 -13 -12 -23 -25 -21 -27 3 -2 -11 -12 -31 -21 -19
-10 -32 -12 -28 -6 4 8 0 7 -16 -1 -12 -6 -31 -10 -41 -7 -14 4 -27 -6 -49
-38 -36 -52 -38 -75 -9 -75 19 0 20 -2 8 -17 -10 -11 -10 -14 -1 -9 6 4 12 5
12 3 0 -3 -17 -16 -37 -28 -21 -13 -43 -27 -49 -31 -5 -4 -26 6 -45 23 -38 32
-60 36 -82 14 -12 -11 -17 -12 -20 -2 -4 9 -7 9 -14 0 -6 -9 -26 -11 -61 -8
-29 3 -51 2 -51 -2 5 -20 -14 -40 -32 -36 -10 3 -19 1 -19 -5 0 -5 -7 -13 -16
-16 -14 -5 -15 -4 -4 9 11 13 8 15 -18 15 -25 0 -29 3 -25 20 3 10 16 26 29
35 13 8 24 24 24 35 0 11 4 20 10 20 5 0 7 7 4 15 -5 11 -18 13 -60 9 -38 -4
-60 -2 -71 8 -9 7 -14 8 -10 2 8 -14 -34 -27 -46 -15 -13 13 -3 46 13 43 11
-3 11 0 1 12 -8 10 -9 16 -1 21 6 3 8 11 5 16 -4 5 1 16 9 25 9 8 16 13 16 9
0 -3 14 4 31 16 22 16 45 22 78 21 25 0 40 2 33 5 -6 2 -10 9 -6 14 8 14 34
11 34 -5 0 -7 11 -16 25 -18 13 -3 22 -2 20 2 -3 4 6 8 18 8 16 0 23 -7 25
-23 1 -18 -5 -24 -29 -29 -20 -4 -28 -10 -23 -17 5 -8 1 -11 -12 -7 -17 4 -19
0 -15 -36 6 -75 43 -87 103 -35 21 19 50 33 68 34 40 3 65 25 30 25 -14 0 -32
5 -40 10 -13 9 -13 10 0 10 18 0 50 34 50 53 1 24 26 46 51 42 13 -1 47 -6 74
-10 43 -6 53 -4 72 14 12 12 27 21 32 21 6 0 14 6 18 14 4 7 18 18 31 25 32
17 27 39 -10 50 -19 5 -25 10 -14 10 10 1 25 9 32 19 12 16 13 15 14 -5 0 -12
4 -24 8 -27 9 -5 9 30 0 39 -10 10 4 55 18 55 16 0 19 26 4 35 -5 3 -7 12 -4
20 4 10 12 11 28 5 18 -6 22 -4 23 13 1 11 -8 29 -20 40 -12 11 -17 21 -11 24
6 2 8 17 6 34 -4 28 -2 30 19 28 13 -2 31 1 39 6 8 6 24 15 35 21 11 6 19 16
18 22 -2 7 10 12 30 12 26 0 36 6 45 24 8 19 8 25 -3 30 -8 3 -11 13 -8 25 7
27 33 28 28 1z m277 4 c-2 -5 -9 -8 -15 -6 -7 1 -4 -4 6 -12 22 -17 2 -29 -25
-15 -24 13 -12 49 16 45 11 -2 19 -7 18 -12z m-2600 -68 c4 -6 3 -12 -2 -14
-6 -2 -7 -15 -4 -29 6 -23 5 -24 -14 -12 -12 7 -19 15 -17 18 3 2 0 10 -6 17
-8 9 -5 11 10 7 12 -3 21 -1 21 6 0 6 -6 11 -14 11 -8 0 -18 5 -22 11 -9 15
38 0 48 -15z m2098 13 c0 -15 -50 -62 -70 -66 -8 -2 -24 -5 -36 -6 -32 -5 -84
-46 -84 -67 0 -20 32 -44 44 -33 3 3 6 -1 6 -11 0 -11 -4 -14 -12 -10 -8 5 -9
2 -5 -9 3 -10 2 -17 -3 -17 -5 0 -7 -6 -4 -14 4 -11 -7 -18 -38 -26 -23 -6
-47 -12 -53 -14 -5 -2 -22 10 -37 25 -16 16 -28 26 -28 22 0 -3 -3 -4 -6 -1
-8 9 15 48 28 48 6 0 5 -6 -3 -17 -12 -14 -12 -16 1 -11 21 7 19 61 -3 64 -9
1 -17 -2 -17 -7 0 -5 -7 -9 -16 -9 -8 0 -25 -5 -37 -12 -42 -23 -97 -18 -97 8
0 26 72 85 96 79 13 -3 27 2 34 10 7 8 21 15 31 15 11 0 19 4 19 9 0 14 70 38
115 40 22 0 52 4 68 9 48 13 107 13 107 1z m688 -67 c2 -7 -3 -12 -12 -12 -9
0 -16 7 -16 16 0 17 22 14 28 -4z m-40 -17 c0 -14 -6 -25 -12 -25 -6 0 -3 -5
6 -11 12 -7 25 -6 40 1 14 7 11 1 -10 -15 -18 -15 -30 -30 -27 -35 3 -4 -4 -6
-16 -3 -12 4 -25 0 -29 -8 -5 -7 -26 -13 -47 -14 -21 -1 -48 -6 -59 -13 -25
-13 -34 -7 -34 22 0 12 -7 32 -16 45 -20 28 -6 41 43 39 18 -1 41 5 50 13 10
8 34 16 53 18 19 2 37 5 39 7 11 10 19 2 19 -21z m-2614 -49 c9 -44 7 -86 -4
-86 -5 0 -10 -7 -10 -15 0 -8 -4 -15 -10 -15 -5 0 -10 5 -10 11 0 5 -4 8 -9 5
-14 -9 -41 4 -41 20 0 8 5 14 11 14 8 0 8 5 -1 15 -13 16 -6 65 10 65 6 0 10
9 10 19 0 31 47 3 54 -33z m2227 -116 c5 0 9 -5 9 -12 0 -9 -3 -9 -11 -1 -7 7
-25 9 -42 6 -23 -5 -29 -3 -25 8 2 8 14 18 26 24 12 5 23 14 23 20 1 5 4 -2 6
-17 2 -16 9 -28 14 -28z m260 27 c-13 -13 -26 -3 -16 12 3 6 11 8 17 5 6 -4 6
-10 -1 -17z m-926 -75 c15 -10 17 -54 3 -46 -8 5 -9 1 -5 -10 4 -10 2 -16 -6
-15 -20 2 -57 -13 -52 -21 8 -13 -16 -24 -46 -22 -15 1 -34 -4 -42 -12 -7 -8
-20 -14 -28 -14 -35 2 -60 -3 -55 -10 3 -5 -12 -17 -32 -27 -41 -21 -44 -21
-89 -23 -23 -2 -34 -8 -38 -23 -4 -12 -10 -18 -14 -13 -9 13 -44 11 -49 -4 -2
-6 -16 -12 -31 -12 -15 0 -31 -4 -37 -9 -15 -14 -98 -25 -90 -12 4 6 1 11 -7
11 -9 0 -13 -9 -12 -23 2 -17 -3 -23 -18 -25 -12 0 -23 -6 -25 -12 -2 -5 -12
-10 -22 -10 -10 0 -31 -5 -47 -12 -15 -6 -31 -12 -35 -12 -3 -1 -10 -4 -14 -8
-14 -15 -54 -9 -54 8 0 10 -6 14 -15 10 -10 -4 -15 1 -15 14 0 11 7 20 15 20
8 0 15 5 15 11 0 5 -4 8 -9 5 -5 -3 10 23 33 58 22 35 43 60 44 55 6 -15 32
-10 32 6 0 8 4 15 9 15 17 0 40 -30 35 -45 -7 -17 21 -21 31 -5 3 6 18 10 33
10 28 1 53 26 66 68 4 12 14 22 22 22 20 0 30 30 13 41 -11 7 -11 9 4 9 9 0
17 4 17 9 0 4 19 5 42 1 27 -5 57 -3 87 6 35 10 47 11 53 1 6 -9 10 -9 16 0 5
8 13 9 22 3 8 -5 19 -5 25 0 6 5 38 12 70 16 33 3 71 7 85 9 14 1 36 7 50 13
30 13 51 14 65 4z m1299 -3 c-3 -6 -1 -15 6 -19 8 -5 7 -9 -4 -13 -11 -4 -16
-1 -16 12 0 10 3 21 7 24 10 11 15 8 7 -4z m-939 -40 c-9 -9 -27 -20 -41 -23
-13 -4 -24 -14 -24 -22 0 -10 -6 -14 -15 -10 -9 3 -15 0 -15 -10 0 -19 -49 -9
-68 15 -11 14 -9 20 18 44 23 21 40 27 75 27 24 0 47 5 50 10 5 8 11 7 21 -1
13 -10 12 -14 -1 -30z m-1035 -9 c0 -5 -4 -10 -10 -10 -5 0 -10 5 -10 10 0 6
5 10 10 10 6 0 10 -4 10 -10z m-900 -10 c0 -5 -2 -10 -4 -10 -3 0 -8 5 -11 10
-3 6 -1 10 4 10 6 0 11 -4 11 -10z m927 -19 c2 -22 -26 -33 -51 -19 -20 11
-22 30 -2 22 8 -3 17 -1 21 5 10 18 31 13 32 -8z m-84 -26 c4 -8 2 -17 -2 -20
-5 -2 -11 4 -14 15 -6 23 8 27 16 5z m797 -111 c0 -8 -5 -12 -10 -9 -6 4 -8
11 -5 16 9 14 15 11 15 -7z m-72 -14 c-14 -22 -39 -27 -35 -7 3 15 18 27 35
27 10 0 10 -4 0 -20z m422 -142 c0 -6 -3 -9 -6 -5 -3 3 -16 -5 -28 -17 -28
-30 -48 -36 -64 -19 -10 10 -11 17 -3 27 6 7 9 15 6 17 -2 3 18 6 45 7 33 1
50 -2 50 -10z m-875 -41 c26 4 36 2 41 -10 7 -19 -21 -53 -31 -37 -4 6 -15 3
-30 -7 -12 -10 -21 -21 -18 -25 2 -5 -1 -8 -8 -8 -7 0 -20 -7 -28 -14 -23 -21
-37 -8 -44 40 -7 40 -6 41 36 61 32 16 43 17 45 7 2 -8 14 -11 37 -7z m754 -1
c9 -10 8 -15 -4 -20 -8 -3 -15 0 -15 6 0 6 -6 5 -17 -3 -15 -13 -15 -12 -4 9
14 25 24 28 40 8z m-1004 -56 c-5 -16 -3 -19 10 -13 15 5 15 3 4 -16 -15 -23
-43 -36 -58 -27 -5 3 -19 -4 -33 -17 -28 -26 -73 -34 -94 -16 -13 10 -13 14 0
28 9 9 30 18 48 19 18 2 35 7 36 12 2 6 10 10 17 10 8 0 20 6 27 13 11 11 30
22 46 26 2 1 1 -8 -3 -19z m1154 -82 c-24 -33 -27 -35 -81 -42 -22 -4 -38 -2
-38 4 0 6 5 10 11 10 6 0 31 18 56 40 36 31 49 38 59 29 11 -9 10 -16 -7 -41z
m-972 -18 c7 -14 13 -19 13 -11 0 8 2 12 5 9 3 -3 1 -16 -4 -29 -5 -13 -10
-17 -11 -9 0 13 -2 13 -9 0 -6 -8 -7 -19 -5 -25 3 -5 -6 4 -20 20 -26 30 -33
55 -19 69 13 13 37 1 50 -24z m263 21 c0 -5 3 -16 6 -24 4 -11 -1 -13 -21 -9
-14 2 -25 1 -24 -4 6 -35 -12 -44 -37 -20 -8 8 -14 19 -14 25 0 6 -4 11 -10
11 -5 0 -10 4 -10 9 0 5 8 7 19 4 10 -3 22 0 25 6 9 13 66 15 66 2z m-440 -75
c30 5 45 -4 53 -31 5 -16 -1 -24 -38 -39 -24 -11 -41 -24 -39 -28 3 -5 10 -6
15 -3 5 4 9 1 9 -4 0 -6 -7 -11 -15 -11 -8 0 -15 -3 -15 -7 0 -9 -48 -33 -66
-33 -7 0 -14 5 -16 12 -2 6 -11 12 -20 14 -11 1 -15 -3 -11 -12 3 -8 0 -14 -7
-14 -6 0 -9 -4 -6 -8 3 -5 0 -9 -7 -9 -7 0 -22 -3 -35 -7 -16 -5 -24 -3 -28 8
-3 9 -9 14 -13 12 -3 -2 -7 7 -7 20 -2 18 6 29 28 40 21 11 28 21 25 33 -3 13
6 23 29 36 19 10 34 23 34 28 0 5 13 7 30 4 16 -4 32 -2 35 3 4 6 13 7 23 1
10 -5 28 -7 42 -5z m635 0 c17 1 39 3 50 7 27 8 54 -14 61 -51 6 -27 3 -33
-19 -41 -14 -5 -26 -13 -28 -18 -4 -8 -75 -45 -94 -48 -5 -1 -12 -3 -15 -4 -3
-1 -27 -4 -55 -6 -36 -4 -54 -11 -66 -27 -13 -17 -30 -23 -78 -26 -33 -2 -61
-8 -61 -13 0 -4 -13 -4 -29 1 -20 5 -33 4 -42 -5 -19 -19 -89 -31 -89 -16 0 7
-5 9 -12 5 -8 -5 -9 0 -4 17 3 13 9 36 12 52 7 29 31 36 52 15 10 -10 14 -8
18 10 4 12 11 22 16 22 5 0 6 -6 2 -12 -5 -9 -2 -8 10 1 12 10 14 16 5 22 -16
9 -4 39 16 39 9 0 18 -12 21 -29 4 -17 14 -31 25 -34 22 -6 36 9 17 16 -7 3 6
6 30 6 35 1 42 4 42 21 0 11 7 20 15 20 9 0 27 12 41 27 39 42 76 62 104 55
14 -3 39 -6 55 -6z m-600 -206 c7 0 19 -8 26 -17 12 -15 12 -16 -3 -10 -10 3
-17 3 -17 -1 3 -20 -2 -33 -11 -27 -5 3 -10 -3 -10 -15 0 -11 -6 -20 -12 -18
-7 1 -23 -3 -36 -10 -24 -14 -62 -7 -74 11 -9 14 38 60 80 78 17 8 32 18 33
24 0 5 3 4 6 -2 2 -7 10 -13 18 -13z m-1045 -20 c0 -5 -4 -12 -10 -15 -5 -3
-10 -1 -10 5 0 6 -4 8 -10 5 -5 -3 -7 0 -4 9 6 15 34 11 34 -4z m70 -66 c0
-12 -7 -25 -16 -28 -8 -3 -12 -2 -9 3 3 5 1 12 -5 16 -18 11 -11 34 10 32 13
-1 20 -8 20 -23z m5010 -7 c13 4 13 3 0 -6 -16 -11 -40 3 -40 23 0 6 6 4 13
-5 7 -9 19 -14 27 -12z m-5066 -156 c12 -14 14 -24 7 -43 -10 -27 -38 -54 -48
-45 -3 4 -12 2 -20 -4 -10 -9 -18 -8 -33 6 -10 9 -24 14 -29 10 -15 -9 -14 8
2 24 10 11 9 12 -3 6 -8 -4 -3 5 11 20 15 15 38 28 53 28 14 1 26 5 26 10 0
13 16 7 34 -12z m136 0 c0 -5 -7 -12 -16 -15 -14 -5 -15 -4 -4 9 14 17 20 19
20 6z m704 -206 c3 -8 1 -15 -4 -15 -6 0 -10 7 -10 15 0 8 2 15 4 15 2 0 6 -7
10 -15z m-867 -62 c-9 23 10 22 23 -2 16 -32 12 -62 -10 -68 -11 -3 -20 -12
-20 -19 0 -8 -4 -14 -10 -14 -5 0 -9 -4 -7 -9 4 -16 -7 -15 -34 2 -25 17 -26
19 -16 70 12 63 24 73 56 44 20 -18 23 -19 18 -4z m91 -20 c-4 -22 -22 -20
-26 1 -2 10 3 16 13 16 10 0 15 -7 13 -17z m592 -95 c0 -8 3 -9 8 -3 4 6 15
11 25 13 22 4 23 -33 1 -42 -24 -9 -46 -7 -39 4 3 6 1 10 -4 10 -6 0 -11 7
-11 15 0 8 5 15 10 15 6 0 10 -6 10 -12z m2360 2 c0 -5 -5 -10 -11 -10 -5 0
-7 5 -4 10 3 6 8 10 11 10 2 0 4 -4 4 -10z m-1900 -60 c0 -5 -2 -10 -4 -10 -3
0 -8 5 -11 10 -3 6 -1 10 4 10 6 0 11 -4 11 -10z m2610 1 c0 -6 -5 -13 -10
-16 -6 -4 -8 -23 -6 -43 5 -46 -18 -79 -42 -59 -13 10 -15 9 -9 -5 3 -10 2
-18 -3 -18 -6 0 -10 4 -10 9 0 5 -8 7 -18 4 -18 -4 -18 0 -9 55 9 59 10 60 51
70 56 13 56 13 56 3z m-2795 -41 c-5 -22 -3 -32 9 -36 27 -10 38 -112 14 -141
-6 -8 -6 -19 2 -32 7 -14 7 -27 2 -38 -5 -9 -7 -24 -5 -34 3 -11 1 -19 -5 -19
-6 0 -9 -12 -7 -27 2 -20 -4 -34 -22 -49 -24 -19 -26 -28 -30 -110 -4 -114 -4
-114 -17 -114 -6 0 -4 -4 4 -10 12 -8 12 -10 -3 -16 -9 -3 -17 -14 -17 -24 0
-9 -7 -31 -16 -48 -13 -27 -20 -31 -45 -28 -43 4 -59 24 -35 41 17 13 14 41
-4 30 -5 -3 -5 8 0 24 4 16 6 32 3 35 -3 3 -1 11 5 19 6 7 12 24 14 37 2 14 7
31 12 39 7 10 5 12 -3 6 -10 -6 -11 -3 -2 13 6 11 8 28 4 38 -4 11 -3 15 4 11
6 -4 13 5 15 23 3 16 1 31 -4 32 -16 6 -18 66 -3 78 10 9 11 18 4 37 -8 21 -6
30 11 48 13 14 17 24 10 31 -7 7 -4 18 10 34 20 24 27 46 11 36 -14 -9 -6 23
10 42 23 26 29 48 17 60 -12 12 -1 35 12 27 5 -3 11 -1 15 5 3 5 13 10 21 10
12 0 14 -7 9 -30z m-445 16 c0 -3 -4 -8 -10 -11 -5 -3 -10 -1 -10 4 0 6 5 11
10 11 6 0 10 -2 10 -4z m156 -71 c-21 -16 -21 -29 0 -21 13 5 15 2 9 -11 -15
-35 -18 -66 -7 -59 18 11 25 -33 8 -50 -9 -8 -16 -24 -16 -34 0 -10 -4 -22
-10 -25 -5 -3 -10 -15 -10 -26 0 -11 -4 -17 -10 -14 -5 3 -10 -1 -10 -9 0 -24
4 -31 14 -28 5 2 4 -3 -2 -11 -9 -10 -9 -16 1 -26 9 -9 9 -14 -2 -20 -11 -7
-8 -13 13 -26 30 -20 34 -34 9 -36 -17 -1 -17 -2 0 -6 20 -5 22 -29 5 -83 -8
-24 -18 -39 -27 -37 -8 1 -15 -8 -16 -23 -2 -32 -8 -54 -16 -60 -4 -3 -4 -31
-1 -63 2 -33 8 -54 12 -47 4 6 6 -6 5 -27 -2 -29 -7 -37 -19 -35 -16 3 -23
-13 -8 -21 4 -2 2 -2 -5 -1 -6 2 -13 -1 -15 -6 -2 -5 -20 -7 -40 -3 -31 5 -38
10 -38 29 0 13 9 28 20 34 22 12 27 46 8 53 -10 3 -10 7 0 20 20 24 4 39 -34
35 -22 -3 -35 1 -39 10 -3 7 -9 10 -15 7 -5 -3 -10 -1 -10 4 0 15 23 14 40 -1
8 -8 6 0 -4 16 -16 26 -17 30 -2 44 15 15 16 15 16 -2 0 -12 5 -16 16 -12 9 3
25 6 36 6 15 0 19 5 15 19 -4 15 0 19 14 16 12 -2 19 2 19 11 0 8 -6 14 -14
14 -11 0 -12 8 -6 34 4 18 10 39 14 45 4 6 3 11 -3 11 -5 0 -12 -6 -14 -12 -4
-9 -6 -8 -6 2 -1 9 8 23 19 33 11 9 21 30 21 47 5 104 3 133 -8 142 -18 14
-16 34 5 65 9 15 11 24 5 20 -7 -5 -13 -4 -13 2 0 6 5 11 10 11 6 0 10 13 10
28 0 29 47 92 68 92 7 0 12 6 13 13 0 8 2 7 6 -2 3 -8 -2 -20 -11 -26z m-400
8 c7 -10 14 -28 14 -40 0 -22 -3 -22 -50 -11 -20 4 -33 50 -17 60 20 13 39 9
53 -9z m-199 -34 c-1 -11 -5 -15 -10 -10 -5 5 -16 7 -23 4 -17 -6 -18 1 -2 27
15 23 37 10 35 -21z m3407 -73 c-10 -8 -21 -12 -24 -9 -3 2 4 11 14 19 11 7
22 12 25 9 2 -3 -4 -12 -15 -19z m-3166 -49 c6 -7 10 -22 9 -34 -2 -27 -35
-26 -61 0 -18 17 -18 19 0 32 24 18 39 19 52 2z m3322 -17 c0 -5 -5 -10 -11
-10 -5 0 -7 5 -4 10 3 6 8 10 11 10 2 0 4 -4 4 -10z m-3140 -128 c0 -34 -31
-63 -59 -55 -33 8 -24 63 10 63 10 0 19 5 19 10 0 6 7 10 15 10 10 0 15 -10
15 -28z m1647 2 c-3 -3 -12 -4 -19 -1 -8 3 -5 6 6 6 11 1 17 -2 13 -5z m-1630
-88 c-5 -16 -37 -20 -50 -7 -9 9 -8 14 2 20 17 11 53 2 48 -13z m521 -8 c9 -9
12 -9 12 0 0 7 4 12 9 12 17 0 3 -99 -20 -140 -13 -22 -25 -40 -28 -40 -39 3
-52 120 -17 159 22 24 28 25 44 9z m754 -130 c15 -7 29 -21 32 -31 2 -9 0 -15
-4 -12 -5 3 -11 -8 -15 -23 -6 -28 -8 -29 -67 -28 -40 0 -63 -4 -66 -12 -2 -7
-9 -18 -16 -25 -7 -7 -18 -22 -25 -35 -6 -12 -16 -22 -22 -22 -6 0 -7 5 -3 12
5 7 2 9 -9 5 -38 -15 -87 -19 -87 -8 0 7 5 9 10 6 6 -4 25 8 42 27 17 18 35
34 39 34 22 3 23 5 9 15 -12 8 -10 9 7 4 12 -3 24 -1 27 4 4 6 13 8 21 5 17
-7 60 31 51 45 -9 14 24 63 38 57 6 -2 23 -10 38 -18z m1102 8 c-3 -9 1 -13
13 -13 13 2 17 -4 15 -18 -5 -25 -16 -32 -69 -46 -24 -6 -41 -15 -38 -19 3 -5
-3 -7 -12 -5 -20 3 -73 -42 -73 -62 0 -7 -5 -13 -11 -13 -5 0 -8 4 -5 9 4 5
-3 7 -13 4 -10 -3 -29 0 -41 7 l-22 12 23 21 c13 12 29 22 35 22 7 0 24 13 38
28 14 15 30 27 36 27 6 0 16 11 22 25 11 25 28 34 28 15 0 -5 5 -10 11 -10 5
0 7 5 3 11 -4 8 0 9 15 4 12 -4 21 -2 21 4 0 6 7 11 15 11 8 0 12 -6 9 -14z
m-1579 -56 c3 -5 1 -10 -4 -10 -6 0 -11 5 -11 10 0 6 2 10 4 10 3 0 8 -4 11
-10z m-285 -14 c0 -2 -9 -6 -20 -9 -11 -3 -20 -1 -20 4 0 5 9 9 20 9 11 0 20
-2 20 -4z m1546 -53 c-10 -11 -37 -12 -30 -2 3 5 12 9 21 9 9 0 13 -3 9 -7z
m4 -52 c0 -4 -13 -12 -30 -18 -38 -14 -50 1 -19 28 17 14 25 16 36 8 7 -6 13
-14 13 -18z m-2880 -335 c0 -3 -4 -8 -10 -11 -5 -3 -10 -1 -10 4 0 6 5 11 10
11 6 0 10 -2 10 -4z" />
        <path d="M8317 6283 c-12 -11 -8 -23 8 -23 8 0 15 7 15 15 0 16 -12 20 -23 8z" />
        <path d="M8278 6240 c-6 -37 7 -74 22 -65 4 3 6 15 4 28 -4 20 -4 20 6 -3 8
-18 13 -21 19 -12 13 22 1 62 -19 62 -10 0 -20 6 -23 13 -2 6 -6 -4 -9 -23z" />
        <path d="M7488 5833 c-10 -2 -18 -9 -18 -14 0 -6 5 -7 10 -4 6 3 13 -1 16 -9
3 -9 11 -16 16 -16 6 0 5 6 -2 15 -6 8 -9 19 -5 25 3 5 5 9 3 9 -2 -1 -11 -3
-20 -6z" />
        <path d="M7525 5831 c-3 -5 -1 -12 4 -15 5 -3 11 1 15 9 6 16 -9 21 -19 6z" />
        <path d="M8248 5313 c7 -3 16 -2 19 1 4 3 -2 6 -13 5 -11 0 -14 -3 -6 -6z" />
        <path d="M9170 5944 c0 -3 9 -14 19 -25 18 -20 37 -14 23 7 -8 12 -42 26 -42
18z" />
        <path d="M7813 5615 c0 -8 4 -15 9 -15 4 0 8 4 8 9 0 6 -4 12 -8 15 -5 3 -9
-1 -9 -9z" />
        <path d="M7785 4940 c-3 -5 1 -10 10 -10 9 0 13 5 10 10 -3 6 -8 10 -10 10 -2
0 -7 -4 -10 -10z" />
        <path d="M2106 12774 c-9 -23 -7 -36 4 -29 6 3 10 1 10 -4 0 -16 26 -13 40 4
10 12 10 18 0 30 -16 20 -46 19 -54 -1z" />
        <path d="M1333 12602 c-15 -11 -20 -22 -14 -30 7 -11 9 -11 14 2 4 9 12 16 19
16 9 0 8 -3 -2 -10 -12 -8 -11 -10 8 -10 12 0 22 -4 22 -10 0 -11 30 -1 48 17
8 7 17 11 22 8 4 -3 6 4 3 15 -6 23 -19 26 -26 8 -4 -10 -6 -10 -6 0 -1 18
-62 14 -88 -6z" />
        <path d="M1010 12499 c-30 -11 -62 -21 -70 -23 -8 -2 -14 -11 -12 -20 2 -9 -4
-16 -11 -16 -8 0 -22 -15 -31 -34 -21 -44 -20 -49 5 -41 16 5 19 4 14 -5 -6
-9 0 -11 21 -6 18 4 40 0 57 -9 15 -8 25 -10 23 -6 -7 10 27 51 42 51 6 0 12
-4 14 -9 5 -14 48 7 48 24 0 9 -6 26 -14 38 -7 12 -12 34 -11 50 2 32 -3 33
-75 6z" />
        <path d="M12218 11662 c-3 -11 0 -19 8 -19 8 0 14 9 14 19 0 10 -4 18 -9 18
-5 0 -11 -8 -13 -18z" />
        <path d="M12010 11519 c0 -5 5 -7 10 -4 6 3 10 8 10 11 0 2 -4 4 -10 4 -5 0
-10 -5 -10 -11z" />
        <path d="M8680 10963 c0 -7 -9 -9 -22 -5 -20 5 -20 4 -7 -11 12 -13 16 -13 28
-1 8 7 12 17 8 20 -4 4 -7 3 -7 -3z" />
        <path d="M10762 10897 c-24 -25 -29 -57 -9 -57 20 1 47 26 47 44 0 9 5 16 11
16 5 0 7 5 4 10 -10 16 -30 11 -53 -13z" />
        <path d="M8520 10760 c0 -5 7 -10 16 -10 8 0 12 5 9 10 -3 6 -10 10 -16 10 -5
0 -9 -4 -9 -10z" />
        <path d="M8482 10728 c-11 -11 -17 -68 -7 -68 15 0 45 38 45 57 0 25 -19 30
-38 11z" />
        <path d="M10013 10710 c-13 -10 -23 -21 -23 -24 0 -3 -9 -16 -21 -29 -14 -17
-27 -23 -45 -19 -13 2 -24 8 -24 13 0 16 -27 9 -51 -13 -38 -36 -59 -75 -59
-108 0 -16 -3 -30 -8 -30 -4 0 -13 -15 -21 -32 -8 -18 -19 -36 -25 -40 -6 -4
-11 -11 -11 -15 -1 -4 -6 -18 -13 -31 -13 -23 -9 -42 9 -42 5 0 9 6 9 14 0 8
13 19 29 24 29 10 56 44 44 56 -3 3 0 6 8 6 8 0 20 9 27 20 7 11 19 20 27 20
13 0 19 12 16 32 0 4 17 15 39 24 22 10 40 23 40 30 0 13 55 84 67 87 12 2 43
30 43 39 0 5 -6 8 -14 8 -8 0 -16 6 -18 14 -2 12 -7 11 -25 -4z" />
        <path d="M9206 10224 c-11 -7 -16 -17 -13 -21 4 -4 15 1 24 10 9 9 15 19 12
21 -2 2 -13 -2 -23 -10z" />
        <path d="M9052 10175 c0 -16 2 -22 5 -12 2 9 2 23 0 30 -3 6 -5 -1 -5 -18z" />
        <path d="M6870 8786 c0 -23 16 -27 17 -5 1 10 -2 19 -8 19 -5 0 -9 -6 -9 -14z" />
        <path d="M6770 8589 c-7 -11 -9 -23 -6 -27 3 -3 6 0 6 6 0 6 6 9 14 6 11 -4
13 0 9 15 -7 26 -10 26 -23 0z" />
        <path d="M6640 8466 c0 -8 -6 -16 -14 -19 -18 -7 -15 -51 4 -54 21 -4 53 43
45 67 -7 23 -35 27 -35 6z" />
        <path d="M6570 8402 c0 -5 9 -12 21 -15 13 -3 19 -1 16 6 -5 15 -37 22 -37 9z" />
        <path d="M3238 8126 c-25 -6 -49 -14 -53 -17 -3 -4 -33 -5 -66 -2 -32 2 -59 1
-59 -4 0 -4 -10 -9 -22 -10 -61 -6 -74 -9 -86 -17 -17 -11 -104 2 -96 15 9 15
-19 6 -32 -10 -7 -9 -20 -12 -38 -7 -22 5 -29 3 -33 -12 -5 -21 -43 -19 -43 2
0 6 -5 4 -10 -4 -6 -10 -10 -11 -10 -2 0 23 -17 12 -36 -25 -11 -21 -24 -39
-29 -39 -30 -4 -55 -18 -55 -29 0 -7 -5 -15 -10 -17 -6 -2 -2 -13 10 -25 11
-12 19 -28 18 -35 -2 -6 6 -14 17 -16 11 -2 25 -9 30 -14 7 -8 6 -9 -2 -4 -9
5 -13 0 -13 -13 0 -28 -11 -52 -21 -45 -5 3 -9 -4 -9 -14 0 -11 16 -34 35 -51
19 -17 35 -34 35 -39 0 -5 13 -19 30 -32 23 -18 29 -30 27 -54 -1 -17 -8 -37
-15 -44 -7 -8 -9 -18 -6 -24 4 -6 0 -16 -9 -23 -15 -11 -24 -37 -26 -73 -1 -7
-5 -10 -11 -7 -5 3 -10 1 -10 -4 0 -6 -7 -11 -15 -11 -8 0 -14 -3 -14 -7 4
-27 -2 -42 -16 -37 -10 4 -14 1 -11 -7 3 -8 7 -31 9 -53 3 -21 9 -42 15 -48
11 -11 4 -48 -8 -48 -4 0 -12 -17 -17 -37 -6 -28 -14 -39 -31 -41 -12 -2 -22
2 -22 9 0 6 -9 0 -21 -15 -23 -29 -44 -91 -40 -118 1 -11 -4 -18 -13 -18 -13
0 -14 -10 -10 -53 4 -40 2 -56 -10 -66 -8 -7 -12 -19 -10 -26 3 -8 2 -20 -2
-27 -5 -7 -9 -15 -10 -18 -11 -37 -18 -50 -25 -50 -5 0 -9 -7 -9 -15 0 -9 -7
-18 -15 -21 -8 -4 -13 -10 -10 -14 3 -5 1 -11 -5 -15 -12 -8 -13 -52 -1 -59
12 -8 1 -56 -13 -56 -6 0 -4 -5 4 -10 13 -8 12 -10 -4 -10 -13 0 -16 -5 -12
-16 4 -10 -1 -25 -10 -35 -9 -10 -13 -22 -10 -28 6 -9 -10 -48 -25 -61 -7 -6
-21 -40 -25 -59 -1 -8 -6 -17 -11 -20 -4 -3 -14 -18 -22 -33 -8 -15 -23 -37
-33 -48 -11 -12 -20 -36 -21 -55 -1 -19 -5 -35 -9 -35 -5 0 -8 -7 -8 -15 0 -9
-6 -18 -14 -21 -10 -4 -12 -14 -6 -41 9 -36 30 -69 30 -45 0 14 42 12 52 -3
11 -15 10 -27 -2 -20 -6 4 -10 -5 -10 -19 0 -14 -5 -26 -11 -26 -5 0 -7 -5 -4
-11 4 -6 -2 -13 -14 -16 -11 -3 -18 -10 -14 -16 4 -6 0 -8 -10 -4 -10 3 -17 2
-17 -3 0 -6 -6 -10 -13 -10 -13 0 -33 -21 -55 -59 -11 -19 -10 -27 8 -55 24
-40 25 -46 5 -46 -8 0 -14 3 -13 8 2 4 -1 8 -7 10 -5 2 -17 10 -26 18 -15 13
-17 12 -23 -11 -4 -15 -13 -25 -21 -23 -21 4 -76 -35 -70 -49 3 -8 -5 -13 -20
-13 -17 0 -25 -6 -25 -16 0 -9 -8 -23 -17 -31 -10 -8 -12 -11 -4 -7 11 5 10 1
-2 -17 -9 -13 -17 -31 -17 -41 0 -9 -9 -20 -20 -23 -11 -3 -20 -11 -20 -16 0
-6 4 -7 10 -4 6 3 7 -1 4 -9 -3 -9 -10 -16 -16 -16 -13 0 -38 -26 -38 -39 0
-6 -5 -11 -10 -11 -6 0 -9 -3 -9 -7 4 -23 -2 -43 -11 -38 -5 3 -7 0 -5 -8 3
-7 -4 -19 -17 -26 -13 -6 -32 -25 -43 -41 -11 -17 -25 -30 -30 -30 -14 0 -16
-39 -4 -62 6 -10 15 -15 21 -12 7 5 9 2 5 -9 -3 -9 -3 -16 1 -16 22 4 29 -3
24 -26 -2 -14 -8 -25 -13 -25 -5 0 -9 -15 -9 -34 0 -26 -4 -33 -17 -32 -13 1
-17 -5 -15 -23 2 -19 -2 -22 -18 -18 -11 3 -18 2 -15 -3 7 -12 -32 -56 -41
-47 -5 4 -2 12 6 17 8 6 10 10 4 10 -6 0 -17 -7 -24 -15 -7 -9 -20 -13 -28
-10 -10 3 -12 0 -9 -10 4 -8 2 -17 -4 -20 -5 -4 -9 -3 -8 2 4 23 -4 21 -29 -9
-15 -18 -34 -45 -41 -60 -8 -15 -18 -25 -23 -22 -11 7 -10 2 7 -40 11 -27 12
-36 3 -36 -9 0 -9 -3 0 -12 7 -7 12 -19 12 -29 0 -12 -8 -16 -35 -13 -19 1
-37 -2 -40 -6 -3 -5 -12 -7 -20 -4 -9 4 -18 -1 -21 -12 -4 -11 -15 -28 -25
-39 -10 -11 -21 -35 -24 -54 -7 -42 -23 -73 -35 -66 -4 3 -6 -4 -3 -15 3 -12
-1 -22 -11 -26 -9 -3 -13 -10 -10 -15 3 -5 -1 -16 -10 -24 -17 -17 -30 -20
-21 -5 3 6 2 10 -4 10 -6 0 -13 -11 -17 -24 -6 -26 -34 -44 -34 -23 0 7 -5 4
-11 -6 -5 -9 -8 -21 -5 -25 3 -5 -6 -20 -20 -35 -13 -14 -24 -31 -24 -38 0
-15 -42 -59 -57 -59 -7 0 -13 -9 -13 -21 0 -11 -4 -17 -10 -14 -12 8 -50 -12
-50 -27 0 -7 5 -6 15 2 24 20 17 4 -11 -27 -21 -22 -27 -25 -34 -13 -6 10 -8
-1 -6 -31 3 -53 -9 -93 -24 -84 -6 4 -10 3 -9 -2 1 -4 -1 -20 -5 -35 -6 -20
-3 -32 12 -49 18 -18 25 -20 51 -11 19 7 31 7 31 1 0 -5 -5 -9 -12 -9 -9 0 -9
-3 0 -12 17 -17 15 -33 -2 -19 -9 7 -17 8 -20 2 -3 -5 0 -12 6 -14 7 -3 3 -6
-9 -6 -15 -1 -20 -6 -16 -19 4 -16 -20 -47 -36 -47 -3 0 -5 -3 -4 -7 2 -4 -4
-5 -12 -2 -8 4 -15 1 -15 -4 0 -6 -11 -23 -25 -38 -14 -15 -25 -31 -25 -36 0
-5 -4 -7 -8 -4 -11 6 -28 -67 -28 -113 1 -25 7 -36 22 -42 18 -6 21 -4 17 12
-6 22 7 25 26 7 11 -11 13 -10 8 5 -4 9 -2 17 3 17 14 0 47 35 43 46 -4 12 51
36 73 32 10 -2 23 10 35 32 27 51 89 102 116 97 16 -3 23 1 23 10 0 9 6 13 14
10 9 -4 13 0 11 11 -1 9 3 21 9 25 8 6 7 10 -1 14 -7 2 -13 11 -13 19 0 15 12
17 48 8 13 -4 21 -12 19 -18 -6 -15 69 -20 79 -5 4 8 3 9 -4 5 -8 -5 -12 0
-12 14 0 25 -22 35 -47 22 -14 -9 -21 -6 -30 11 -9 17 -12 18 -13 6 0 -18 -30
-21 -42 -4 -5 6 -11 5 -17 -3 -6 -10 -10 -7 -13 11 -7 35 1 44 37 42 39 -2 66
5 60 16 -8 12 22 79 36 79 9 0 9 -3 0 -14 -9 -10 -8 -15 4 -19 8 -4 14 -3 13
1 -1 4 3 17 10 30 7 12 10 27 7 32 -3 6 -2 10 3 10 10 0 25 38 23 54 -1 5 7 6
19 3 18 -5 22 -1 19 19 0 3 7 12 17 18 10 8 15 20 11 29 -3 9 -2 19 4 22 5 4
7 11 4 16 -3 5 0 6 8 3 13 -4 36 31 43 65 3 18 45 61 58 61 6 0 17 9 23 20 11
16 10 18 -4 13 -10 -4 -14 -2 -10 4 4 6 1 13 -5 16 -17 6 -9 13 22 21 19 6 22
5 10 -3 -12 -9 -11 -10 7 -8 24 3 44 17 25 17 -7 0 -12 9 -12 20 0 11 5 20 10
20 6 0 10 -4 10 -10 0 -5 5 -10 11 -10 6 0 9 7 5 15 -3 8 -1 15 4 15 6 0 7 18
4 43 -6 40 -4 45 40 91 25 27 46 53 46 58 0 4 17 8 38 8 28 0 33 -3 22 -10
-10 -7 -11 -12 -4 -17 6 -5 13 -16 17 -26 5 -14 3 -17 -11 -13 -13 5 -18 0
-19 -16 -1 -13 -6 -32 -12 -43 -12 -26 -24 -58 -25 -68 -1 -4 -7 -12 -15 -16
-10 -6 -12 -19 -7 -45 8 -40 15 -47 42 -40 19 5 34 31 49 84 4 14 14 33 23 43
8 9 11 17 7 17 -4 0 4 11 19 25 14 13 26 29 26 36 0 8 5 7 17 -2 15 -13 15
-12 4 9 -10 18 -9 23 4 28 8 3 12 11 9 16 -4 6 -10 5 -15 -3 -12 -19 -12 3 1
35 9 26 50 38 50 15 0 -6 6 -9 13 -6 6 2 11 11 9 21 -2 9 4 16 12 16 20 0 58
50 52 67 -3 8 1 16 9 19 8 4 15 10 15 16 0 16 24 33 45 33 16 0 20 7 20 30 0
26 3 30 24 27 21 -2 22 0 10 14 -11 13 -11 15 2 14 28 -4 39 0 39 15 0 8 3 14
8 14 4 -1 12 0 17 1 6 1 24 1 41 0 21 -1 33 4 37 15 5 11 14 14 32 9 21 -5 27
-2 32 15 4 16 12 21 27 19 11 -2 20 -9 18 -16 -1 -6 7 -12 18 -12 29 0 44 -35
31 -69 -14 -33 -10 -72 8 -87 10 -8 11 -16 3 -30 -10 -20 -7 -114 5 -144 3 -8
7 -21 9 -28 1 -8 10 -22 18 -31 9 -10 16 -24 16 -32 0 -11 14 -14 58 -14 31 1
62 3 67 4 22 7 35 0 35 -19 0 -11 5 -20 10 -20 6 0 10 -9 10 -21 0 -11 5 -17
10 -14 6 3 10 -1 10 -9 0 -9 6 -16 13 -16 9 0 8 -3 -2 -9 -8 -5 -9 -11 -3 -15
6 -3 18 -28 27 -55 18 -55 36 -68 58 -43 16 20 12 102 -7 102 -6 0 -5 4 3 9
12 8 10 16 -8 51 -12 23 -17 39 -11 35 18 -11 10 31 -10 53 -26 28 -25 42 3
39 13 -1 21 3 20 11 -5 24 34 12 47 -15 7 -16 13 -31 12 -35 -1 -5 3 -8 9 -8
5 0 7 -4 4 -10 -3 -5 1 -10 10 -10 8 0 18 -7 21 -15 4 -8 10 -13 14 -10 4 3
10 -2 14 -10 3 -8 12 -15 21 -15 8 0 15 -9 15 -19 0 -11 6 -26 14 -34 11 -11
12 -17 3 -26 -8 -8 -8 -14 1 -23 19 -19 14 -28 -13 -28 -22 0 -24 -3 -20 -40
5 -52 14 -80 26 -80 5 0 7 -11 5 -25 -4 -21 -2 -23 14 -13 15 9 16 16 8 40 -6
15 -14 28 -19 28 -17 0 -9 19 10 25 26 8 33 29 20 62 -7 20 -6 28 3 35 7 4 9
8 3 8 -11 0 16 20 28 20 4 0 7 -7 7 -15 0 -8 4 -15 9 -15 5 0 12 -11 15 -25 4
-14 11 -23 16 -20 6 3 10 -1 10 -9 0 -9 4 -16 8 -16 10 0 50 -53 54 -72 2 -7
15 -18 31 -25 15 -7 27 -16 26 -20 -5 -28 4 -55 26 -82 29 -34 55 -32 55 4 0
13 4 26 9 29 14 9 -5 89 -25 103 -10 7 -14 13 -10 13 5 0 2 10 -6 23 -8 12
-15 36 -16 53 -1 29 2 32 36 37 20 2 41 1 46 -4 5 -4 15 -5 22 -2 8 3 14 0 14
-6 0 -6 7 -11 16 -11 8 0 12 -4 9 -10 -3 -5 -2 -10 4 -10 12 0 9 -79 -4 -100
-5 -9 -4 -15 3 -18 13 -4 17 -33 5 -31 -23 4 -30 -3 -25 -26 2 -14 8 -22 13
-19 5 3 9 -2 9 -10 0 -9 7 -16 15 -16 8 0 15 9 15 19 0 11 7 26 15 35 8 8 15
21 15 30 0 8 9 20 20 26 12 6 17 16 13 26 -3 8 3 21 13 29 18 13 18 14 2 15
-16 0 -23 11 -19 33 1 4 2 19 3 32 2 20 6 24 23 19 11 -4 23 -11 26 -16 3 -5
13 -6 22 -2 10 3 18 1 18 -5 2 -13 6 -29 9 -36 1 -3 3 -11 4 -17 2 -20 58 -16
83 6 28 24 53 29 53 11 0 -7 7 -18 15 -25 10 -9 15 -9 15 -1 0 6 -5 11 -12 11
-6 0 -9 3 -5 6 3 3 21 -4 39 -17 18 -13 41 -25 52 -26 30 -5 86 25 80 42 -4
11 0 12 22 6 15 -4 30 -13 32 -20 3 -8 0 -11 -7 -7 -7 5 -8 1 -4 -10 4 -11 8
-13 11 -6 5 17 22 15 22 -3 0 -9 6 -12 17 -8 10 4 14 2 10 -4 -4 -6 2 -22 14
-36 11 -15 21 -30 22 -34 1 -4 7 -7 12 -5 6 2 4 -2 -2 -9 -15 -15 -18 -53 -4
-44 5 3 15 -1 23 -8 7 -8 40 -15 78 -16 103 -4 142 -9 153 -20 6 -6 26 -11 44
-11 25 0 31 4 27 15 -7 17 14 48 26 40 14 -9 23 15 11 29 -6 7 -8 16 -4 19 9
10 -1 9 -32 -3 -18 -7 -32 -6 -47 3 -20 11 -88 75 -88 83 0 2 14 1 30 -1 17
-2 30 1 30 6 0 6 5 7 10 4 6 -3 10 -1 10 5 0 7 7 10 15 6 11 -4 15 2 15 25 0
18 4 28 10 24 6 -3 10 -1 10 5 0 16 71 6 84 -12 12 -15 46 -36 108 -63 23 -11
40 -27 46 -43 7 -23 5 -29 -16 -39 -19 -10 -28 -10 -39 -2 -10 9 -17 9 -25 1
-7 -7 -20 -12 -29 -12 -10 0 -21 -5 -25 -12 -4 -7 -3 -8 4 -4 7 4 16 -3 23
-18 10 -21 15 -23 37 -15 18 7 31 5 48 -6 23 -15 35 -33 14 -20 -19 12 -10 -7
13 -25 15 -12 26 -15 34 -9 8 7 14 5 20 -5 4 -8 13 -15 18 -17 37 -7 105 -54
105 -73 0 -6 10 -20 21 -30 12 -10 18 -21 13 -25 -5 -3 -9 -19 -9 -34 1 -22
-3 -27 -17 -24 -9 3 -16 2 -15 -2 1 -3 -2 -7 -8 -8 -17 -3 -32 -76 -19 -90 7
-7 14 -18 16 -24 3 -9 12 -10 36 -1 23 8 32 8 32 0 0 -6 11 1 24 15 13 14 34
27 46 29 13 1 25 9 28 17 3 8 0 11 -5 8 -6 -4 -6 8 0 33 10 36 15 40 55 49 45
9 82 5 82 -10 0 -5 -4 -9 -10 -9 -5 0 -10 -7 -10 -15 0 -8 -8 -15 -18 -15 -11
0 -27 -9 -37 -20 -18 -20 -18 -21 1 -36 10 -8 12 -12 4 -8 -12 5 -11 3 2 -11
17 -19 100 -31 121 -18 15 9 18 10 85 11 37 2 51 5 46 14 -5 8 2 9 25 5 34 -7
117 9 139 26 7 6 10 17 7 25 -3 8 0 21 6 28 6 7 8 18 4 24 -3 5 -1 10 5 10 8
0 10 9 6 25 -4 14 -2 25 4 25 18 0 11 19 -7 19 -27 1 -107 9 -113 12 -3 1 -9
0 -15 -1 -5 -1 -7 2 -3 6 13 12 -65 58 -94 55 -14 -1 -29 3 -33 9 -3 5 -10 8
-15 5 -5 -3 -12 0 -16 6 -5 8 -2 10 7 5 8 -4 5 0 -5 8 -11 9 -22 12 -25 7 -3
-4 -24 -11 -46 -15 -22 -4 -44 -11 -50 -16 -12 -9 -45 -9 -45 1 0 6 -34 21
-55 23 -5 1 -18 9 -27 18 -10 10 -31 18 -48 18 -16 0 -30 4 -30 9 0 5 -7 12
-16 15 -9 4 -13 2 -8 -5 4 -7 0 -9 -12 -6 -11 3 -34 8 -51 12 -18 4 -42 19
-54 33 -11 15 -23 26 -25 25 -14 -9 -13 0 2 15 10 9 19 16 21 15 1 -1 17 2 35
8 23 6 34 5 39 -3 12 -18 18 -6 12 22 -3 19 -11 26 -31 28 -15 1 -28 7 -30 12
-2 6 -15 10 -28 10 -13 0 -24 3 -24 8 0 4 -10 12 -22 17 -27 12 -38 55 -15 55
9 0 17 5 19 11 2 5 18 11 36 11 25 1 39 -7 61 -31 28 -31 28 -31 46 -11 10 11
24 20 30 20 7 0 18 7 26 16 9 11 25 15 51 12 27 -3 37 0 34 9 -9 23 96 29 147
8 12 -5 17 -3 15 6 -2 9 5 13 20 12 16 -2 21 1 16 9 -5 8 -2 9 12 3 30 -13
125 -13 138 1 7 7 19 9 33 3 12 -4 36 -4 53 1 40 12 45 14 43 21 -3 9 98 11
110 1 19 -14 55 -12 68 4 6 8 20 14 30 14 11 0 19 4 19 9 0 6 10 8 21 6 12 -3
27 -1 33 3 11 7 16 8 49 10 10 1 15 7 12 12 -3 6 5 10 18 10 19 0 28 8 36 30
11 32 31 38 53 17 17 -18 95 -19 102 -2 3 8 13 11 24 8 10 -2 45 3 78 12 32 9
66 17 74 17 8 1 21 8 29 16 10 10 27 12 55 9 22 -3 34 -2 27 2 -16 10 -7 16
37 26 29 6 32 10 32 45 0 27 5 42 18 49 26 14 34 14 43 -1 13 -20 11 39 -1 63
-9 16 -15 17 -31 9 -11 -6 -16 -16 -13 -22 4 -7 2 -8 -5 -4 -6 4 -9 16 -6 27
4 12 2 19 -6 19 -7 0 -10 -3 -6 -6 3 -4 0 -13 -8 -20 -7 -8 -15 -19 -17 -26
-4 -10 -13 -9 -41 4 -21 10 -37 22 -37 28 0 5 -18 10 -41 10 -24 0 -38 -4 -34
-10 3 -5 -3 -10 -15 -10 -12 0 -19 -4 -16 -8 2 -4 -3 -8 -12 -9 -9 -1 -33 -4
-52 -7 -19 -2 -50 -5 -68 -5 -20 -1 -31 -5 -27 -11 3 -6 -1 -13 -9 -16 -9 -3
-16 -11 -16 -18 -1 -6 -9 -21 -19 -33 -16 -20 -21 -20 -53 -10 -19 7 -33 17
-31 24 7 20 -35 26 -54 8 -12 -13 -30 -16 -72 -13 -46 2 -62 -1 -89 -20 -17
-13 -32 -20 -32 -15 0 4 -17 9 -37 11 -20 1 -41 8 -45 15 -5 8 -8 7 -8 -6 0
-17 -16 -17 -68 -1 -7 2 -10 -1 -6 -7 4 -7 -3 -9 -17 -7 -13 1 -28 13 -34 26
-12 26 -39 31 -31 5 5 -15 0 -18 -34 -17 -22 1 -40 -2 -40 -7 0 -5 4 -9 8 -9
5 0 9 -7 9 -15 0 -8 -4 -15 -9 -15 -4 0 -8 5 -8 10 0 6 -9 10 -19 10 -11 0
-22 4 -25 9 -8 13 -48 1 -63 -18 -7 -9 -13 -11 -13 -5 0 13 -59 11 -68 -3 -8
-12 -72 -15 -88 -5 -16 10 -24 78 -11 91 6 6 19 11 30 11 10 0 16 3 14 8 -3 4
29 7 71 6 43 0 82 2 87 5 22 13 96 28 100 20 4 -6 192 -4 203 2 4 2 21 6 33 8
8 1 8 5 -1 16 -10 12 -7 15 14 21 34 8 53 31 38 46 -9 9 -12 7 -12 -10 0 -16
-4 -20 -17 -15 -11 5 -13 8 -4 11 8 3 7 8 -6 17 -12 9 -20 10 -25 3 -4 -8 -11
-6 -21 4 -12 11 -13 18 -4 27 8 8 8 11 -1 11 -7 0 -25 11 -40 25 -15 14 -21
25 -14 25 7 0 10 5 6 12 -4 6 -3 8 3 5 5 -3 26 -1 47 5 30 10 36 16 32 32 -3
11 0 26 6 33 8 10 8 17 -1 26 -10 9 -15 8 -25 -5 -7 -9 -24 -18 -39 -20 -14
-2 -35 -12 -46 -22 -12 -11 -21 -14 -21 -8 0 7 -4 12 -10 12 -5 0 -10 -11 -10
-24 0 -13 -6 -27 -12 -29 -10 -4 -10 -6 0 -6 6 -1 12 -10 12 -20 0 -13 -9 -21
-30 -26 -37 -8 -47 -2 -55 35 -4 16 -11 32 -16 35 -5 4 -9 12 -9 18 0 7 4 6
10 -3 8 -13 10 -12 10 3 0 19 -8 21 -29 8 -7 -5 -11 -14 -7 -19 12 -20 -33
-35 -64 -22 -45 19 -70 97 -30 94 8 0 24 8 35 19 11 11 15 17 9 14 -6 -3 -43
-3 -82 1 -39 5 -69 5 -67 1 7 -10 -45 -30 -57 -23 -7 5 -8 2 -3 -6 6 -10 4
-11 -11 -5 -30 13 -69 11 -70 -2 -3 -26 -5 -28 -18 -10 -14 18 -14 17 -21 -2
-8 -25 -38 -43 -58 -35 -9 3 -19 -6 -27 -25 -21 -52 -86 -31 -76 24 6 30 -13
34 -21 5 -4 -16 -9 -18 -19 -9 -21 17 -59 7 -59 -16 0 -11 6 -19 13 -17 6 1
12 -5 12 -13 0 -8 -7 -15 -15 -15 -8 0 -15 6 -15 13 0 7 -14 24 -31 36 -18 13
-29 19 -25 12 4 -6 2 -11 -3 -11 -6 0 -11 5 -11 10 0 6 -9 10 -21 10 -17 0
-20 -4 -15 -24 8 -31 -10 -38 -49 -18 -16 8 -37 18 -45 22 -16 7 -93 -20 -91
-33 3 -19 0 -19 -15 -1 -8 10 -13 12 -9 4 4 -8 -5 -3 -19 13 -29 31 -38 33
-56 12 -7 -9 -21 -13 -31 -10 -12 4 -19 1 -19 -7 0 -10 -3 -9 -10 2 -8 12 -10
11 -10 -7 0 -32 -10 -53 -27 -53 -8 0 -11 5 -8 10 3 6 -1 10 -9 10 -10 0 -16
9 -16 25 0 14 -4 25 -10 25 -5 0 -10 9 -10 21 0 11 -4 18 -8 15 -5 -3 -16 3
-24 14 -16 18 -58 18 -58 -1 0 -5 -18 -9 -40 -9 -23 0 -40 5 -40 11 0 7 -12 9
-32 7 -21 -3 -37 0 -43 8 -5 8 -25 15 -42 16 -18 1 -33 6 -33 11 0 5 -14 6
-30 2 -19 -4 -36 -2 -45 5 -8 6 -20 8 -26 4 -8 -5 -9 -3 -4 6 5 9 2 10 -12 6
-12 -4 -25 -1 -32 8 -7 8 -19 12 -27 9 -8 -3 -14 -1 -14 5 0 15 -35 21 -56 9
-34 -20 -85 -8 -123 29 -20 19 -39 34 -43 34 -5 0 -8 7 -8 16 0 10 -5 14 -15
10 -17 -6 -55 11 -68 32 -4 6 -14 12 -21 12 -8 0 -16 7 -20 15 -3 8 -11 12
-18 10 -7 -3 -19 7 -25 22 -16 32 -17 53 -3 53 5 0 12 11 16 24 4 17 14 26 32
28 22 2 28 9 30 36 2 17 7 32 13 32 5 0 9 7 9 15 0 9 7 18 15 21 8 4 13 9 11
13 -9 14 43 64 59 57 9 -3 13 -2 10 3 -3 5 3 12 12 16 10 3 26 17 36 30 17 24
17 24 0 19 -14 -4 -13 -3 2 6 11 7 26 20 33 28 10 13 12 13 13 1 0 -9 3 -7 8
5 4 11 18 21 31 23 26 4 42 21 33 36 -3 4 4 11 16 14 12 3 21 8 21 12 0 4 14
8 31 9 30 2 101 62 105 88 1 7 10 21 20 32 11 11 28 31 40 45 11 13 29 27 40
31 10 3 34 29 53 56 18 28 40 50 49 50 8 0 12 3 9 7 -4 3 -2 12 4 19 8 10 16
10 35 2 20 -9 27 -9 34 1 4 8 13 11 19 7 7 -4 9 -1 5 8 -3 9 3 19 16 26 11 6
18 15 16 19 -3 4 6 14 19 21 13 7 22 16 20 21 -3 4 4 5 15 2 11 -3 20 -1 20 4
0 5 18 16 40 23 24 8 36 16 29 21 -16 9 0 32 18 25 8 -3 11 -1 8 4 -3 6 -1 10
4 10 6 0 11 7 11 15 0 8 6 15 14 15 7 0 24 13 37 29 13 15 39 36 57 45 17 9
32 22 32 28 0 6 3 8 7 5 3 -4 16 4 27 16 12 13 30 26 40 30 10 4 16 10 13 14
-4 3 5 14 18 25 13 10 27 27 30 38 4 11 11 18 16 14 6 -3 21 1 34 10 13 9 33
16 44 16 11 0 21 5 23 11 2 6 25 13 51 16 25 3 44 10 41 14 -3 5 8 12 25 15
17 4 42 17 56 30 21 19 24 27 15 43 -6 11 -10 24 -9 28 1 4 0 10 -1 13 -7 17
-7 90 1 90 4 0 6 7 3 15 -4 9 2 18 17 24 13 5 18 10 10 10 -14 1 -6 16 8 16
14 0 74 68 97 110 13 22 28 39 33 37 6 -1 10 4 9 10 -2 7 4 12 13 10 23 -3 43
53 28 79 -5 10 -15 19 -21 19 -16 0 -48 40 -48 60 0 9 -3 20 -7 24 -4 4 -8 23
-8 44 -3 85 -7 98 -34 130 -16 17 -32 32 -35 32 -4 0 -17 11 -30 25 -13 14
-28 25 -33 25 -6 0 -22 9 -35 20 -14 11 -41 20 -59 21 -19 1 -58 13 -87 27
-29 13 -56 21 -59 18 -3 -3 -11 1 -17 9 -6 8 -23 16 -38 17 -16 1 -28 5 -28 9
0 3 -18 5 -40 3 -31 -3 -40 0 -40 12 0 8 -13 20 -30 25 -16 6 -30 15 -30 19 0
4 -9 6 -19 3 -10 -3 -30 1 -42 8 -13 7 -30 12 -37 10 -8 -1 -25 5 -38 14 -14
9 -30 13 -36 9 -6 -4 -8 -3 -5 3 8 12 -37 27 -70 24 -13 -1 -23 1 -23 6 0 4
-17 9 -38 10 -43 1 -84 7 -97 14 -6 2 -34 4 -62 4 -33 0 -55 5 -58 13 -2 6
-11 12 -20 12 -8 0 -15 3 -15 8 0 4 -17 6 -39 4 -33 -3 -39 -1 -45 20 -4 14
-9 18 -13 11 -5 -13 -48 -8 -69 8 -6 5 -27 1 -50 -10 -25 -13 -41 -16 -45 -9
-4 6 -12 7 -18 4 -6 -4 -28 6 -48 23 -21 17 -40 30 -43 30 -3 -1 -26 -6 -52
-13z m-536 -868 c20 -31 27 -63 17 -79 -6 -10 -12 -9 -29 6 -18 16 -23 17 -30
5 -7 -11 -11 -8 -20 15 -8 21 -8 30 1 36 7 4 9 14 6 23 -10 26 38 20 55 -6z
m-456 -1126 c-4 -3 -14 2 -24 13 -9 10 -12 15 -5 11 6 -3 15 -1 20 6 5 10 8 8
11 -5 2 -10 1 -21 -2 -25z m930 -146 c0 -13 -4 -22 -8 -19 -5 2 -8 -4 -9 -14
0 -14 -2 -13 -10 5 -5 13 -13 20 -19 17 -5 -3 -10 1 -10 11 0 14 2 14 16 3 13
-11 17 -10 25 4 13 23 17 21 15 -7z m-49 -45 c-1 -12 -7 -17 -17 -14 -13 4
-12 2 1 -9 15 -12 14 -16 -12 -42 -16 -16 -26 -32 -24 -36 3 -4 -2 -13 -10
-20 -12 -10 -18 -10 -30 0 -14 11 -14 15 0 37 9 13 13 28 10 33 -3 6 4 14 17
19 13 5 32 18 42 30 23 26 25 26 23 2z m-1027 -131 c0 -5 -4 -10 -10 -10 -5 0
-10 5 -10 10 0 6 5 10 10 10 6 0 10 -4 10 -10z m-242 -379 c3 -8 -1 -12 -9 -9
-7 2 -15 10 -17 17 -3 8 1 12 9 9 7 -2 15 -10 17 -17z m-23 -29 c-8 -8 -25 10
-25 26 0 13 2 13 14 -4 8 -10 13 -21 11 -22z m-50 -23 c-3 -4 5 -8 17 -7 39 1
48 -1 48 -15 0 -19 -61 -10 -77 11 -17 21 -16 33 2 26 8 -4 13 -10 10 -15z
m188 -39 c9 -11 17 -26 17 -34 0 -17 -27 -29 -35 -16 -3 5 -12 7 -20 3 -9 -3
-15 1 -15 10 0 9 9 19 20 22 23 7 26 21 8 28 -7 3 -8 6 -3 6 6 1 18 -8 28 -19z
m-253 -75 c0 -10 -10 -15 -27 -15 -26 0 -26 1 -7 15 25 19 34 19 34 0z m3455
-133 c-3 -3 -11 0 -18 7 -9 10 -8 11 6 5 10 -3 15 -9 12 -12z m-3224 -60 c6
-16 5 -22 -6 -22 -8 0 -15 -6 -15 -12 0 -9 -3 -8 -10 2 -6 9 -5 17 2 21 7 4 7
9 -1 13 -14 9 -4 29 11 24 6 -2 15 -14 19 -26z m-81 4 c0 -8 8 -17 18 -19 13
-4 11 -5 -5 -6 -13 0 -23 1 -23 3 0 2 -3 11 -6 20 -3 9 -1 16 5 16 6 0 11 -6
11 -14z m2178 2 c-6 -18 -25 -21 -25 -3 0 8 7 15 15 15 7 0 12 -5 10 -12z m13
-21 c-10 -9 -11 -8 -5 6 3 10 9 15 12 12 3 -3 0 -11 -7 -18z m1029 9 c0 -8 -5
-18 -12 -22 -7 -5 -9 -2 -5 9 3 9 1 18 -6 21 -7 2 -4 5 6 5 9 1 17 -5 17 -13z
m-130 -18 c0 -6 -6 -5 -15 2 -8 7 -15 14 -15 16 0 2 7 1 15 -2 8 -4 15 -11 15
-16z m-3075 -44 c6 -7 10 -26 7 -43 -4 -27 -7 -30 -20 -19 -13 11 -15 10 -9
-4 7 -20 6 -21 -17 -12 -23 9 -20 21 9 31 23 7 24 10 12 33 -8 14 -11 32 -9
40 5 13 6 13 10 0 3 -8 11 -20 17 -26z m2638 -8 c17 -13 16 -14 -7 -12 -13 0
-22 4 -20 8 2 3 -2 9 -8 11 -9 4 -8 6 2 6 8 0 23 -6 33 -13z m-2989 -62 c3 -8
2 -12 -4 -9 -6 3 -10 10 -10 16 0 14 7 11 14 -7z m1225 -27 c6 -8 8 -17 4 -20
-11 -12 -23 -7 -23 9 0 8 -4 12 -10 9 -5 -3 -10 -1 -10 4 0 15 25 14 39 -2z
m217 -71 c28 6 52 -12 36 -28 -6 -6 -12 -22 -12 -34 0 -19 -5 -22 -27 -20 -16
2 -29 5 -30 6 -2 1 -9 3 -15 4 -7 0 -13 15 -14 31 -1 45 5 56 25 45 10 -5 26
-7 37 -4z m2564 -6 c-24 -15 -36 -11 -14 4 10 8 21 12 24 10 2 -3 -2 -9 -10
-14z m-1205 -8 c-3 -3 -11 0 -18 7 -9 10 -8 11 6 5 10 -3 15 -9 12 -12z m38 4
c4 -10 1 -13 -8 -9 -8 3 -12 9 -9 14 7 12 11 11 17 -5z m350 -1 c-4 -15 -36
-12 -41 3 -3 9 3 13 19 10 13 -1 23 -7 22 -13z m-393 -19 c0 -11 -19 -15 -25
-6 -3 5 1 10 9 10 9 0 16 -2 16 -4z m-2903 -38 c-3 -8 -6 -5 -6 6 -1 11 2 17
5 13 3 -3 4 -12 1 -19z m1590 0 c-3 -8 -6 -5 -6 6 -1 11 2 17 5 13 3 -3 4 -12
1 -19z m1023 -172 c-14 -14 -24 0 -16 21 6 15 8 15 16 3 6 -9 5 -19 0 -24z
m-940 -81 c0 -5 -5 -3 -10 5 -5 8 -10 20 -10 25 0 6 5 3 10 -5 5 -8 10 -19 10
-25z m895 -11 c12 -13 38 -29 56 -36 19 -6 37 -16 42 -22 5 -8 10 -6 17 4 8
13 10 13 10 -1 0 -9 8 -23 17 -30 11 -10 14 -10 9 -1 -4 6 -2 12 3 12 17 0 13
-14 -9 -33 -22 -18 -65 -23 -75 -7 -3 5 -12 7 -19 4 -9 -3 -17 3 -21 16 -4 12
-12 19 -17 18 -16 -6 -88 71 -88 93 0 17 56 4 75 -17z m245 -218 c0 -11 -19
-15 -25 -6 -3 5 1 10 9 10 9 0 16 -2 16 -4z m-3171 -89 c1 -5 -6 -1 -15 7 -8
9 -12 21 -8 28 5 8 10 6 15 -8 4 -10 8 -23 8 -27z m4124 -136 c9 0 17 -8 17
-17 0 -17 -23 -44 -38 -44 -6 0 -13 -6 -15 -12 -4 -10 -8 -10 -15 1 -5 7 -14
11 -20 7 -6 -3 -21 8 -33 26 -17 24 -19 30 -7 25 9 -3 19 0 22 8 3 8 17 12 38
11 18 -2 41 -4 51 -5z" />
        <path d="M3043 5845 c0 -8 4 -15 9 -15 4 0 8 4 8 9 0 6 -4 12 -8 15 -5 3 -9
-1 -9 -9z" />
        <path d="M2975 4820 c3 -5 10 -10 16 -10 5 0 9 5 9 10 0 6 -7 10 -16 10 -8 0
-12 -4 -9 -10z" />
        <path d="M9960 8070 c0 -5 5 -10 11 -10 5 0 7 5 4 10 -3 6 -8 10 -11 10 -2 0
-4 -4 -4 -10z" />
        <path d="M5666 7388 c-9 -12 -16 -25 -16 -29 0 -11 29 -19 45 -13 18 7 19 23
1 47 -13 17 -15 17 -30 -5z" />
        <path d="M5833 7385 c0 -8 4 -15 9 -15 4 0 8 7 8 15 0 8 -4 15 -8 15 -5 0 -9
-7 -9 -15z" />
        <path d="M5725 7369 c-2 -3 14 -6 36 -7 21 -2 39 1 39 6 0 9 -70 11 -75 1z" />
        <path d="M2065 6020 c-4 -11 -11 -18 -16 -14 -6 3 -5 -3 2 -14 18 -29 50 -17
47 19 -3 33 -24 39 -33 9z" />
        <path d="M2027 5886 c-4 -9 -2 -16 4 -16 6 0 7 -6 3 -12 -5 -10 -4 -10 6 -1 8
7 9 16 3 28 -9 16 -11 16 -16 1z" />
        <path d="M1992 5878 c-16 -16 -15 -48 2 -48 18 0 28 27 18 46 -6 11 -11 11
-20 2z" />
        <path d="M3175 5440 c3 -5 8 -10 11 -10 2 0 4 5 4 10 0 6 -5 10 -11 10 -5 0
-7 -4 -4 -10z" />
        <path d="M5454 5375 c-7 -17 -44 -19 -93 -5 -36 10 -81 4 -81 -11 0 -30 141
-60 181 -38 13 7 28 12 32 11 5 -1 6 2 2 8 -3 5 -1 10 4 10 20 0 11 17 -14 28
-21 10 -27 9 -31 -3z" />
        <path d="M6056 5353 c-4 -14 -15 -18 -41 -17 -19 1 -35 -2 -35 -7 0 -5 -9 -9
-20 -9 -11 0 -20 -6 -20 -12 0 -10 -2 -10 -8 -2 -7 12 -52 11 -71 -1 -6 -3
-11 -1 -11 4 0 6 -4 11 -10 11 -5 0 -10 -7 -10 -15 0 -8 -4 -15 -10 -15 -5 0
-10 -7 -10 -15 0 -18 -12 -19 -28 -3 -6 6 -14 9 -17 6 -3 -3 1 -13 10 -21 20
-20 19 -22 -11 -42 -20 -13 -28 -14 -40 -4 -16 13 -20 44 -4 34 6 -3 10 1 10
10 0 9 -4 13 -10 10 -5 -3 -10 0 -10 7 0 11 -2 11 -9 0 -6 -10 -10 -10 -21 2
-17 21 -30 11 -30 -24 0 -15 -7 -30 -15 -34 -20 -7 -19 -21 2 -42 16 -16 16
-16 -3 -10 -15 4 -20 1 -20 -13 0 -11 4 -17 8 -15 4 3 8 -1 8 -9 0 -19 -58
-28 -132 -20 -54 5 -58 5 -51 -13 3 -10 16 -26 27 -34 23 -17 69 -32 62 -21
-3 4 4 12 15 19 14 9 19 9 19 1 0 -14 77 -4 96 12 9 7 20 6 36 -5 35 -22 134
-7 124 20 -3 7 -1 16 4 19 6 4 10 1 10 -5 0 -12 24 -40 34 -40 3 0 6 6 6 14 0
8 4 18 10 21 6 3 7 -1 4 -9 -5 -13 -1 -14 25 -5 46 16 33 34 -22 32 -26 -2
-47 2 -47 7 0 6 12 10 26 10 14 0 23 4 20 8 -6 10 25 12 39 2 6 -3 28 -8 50
-9 45 -3 68 -18 61 -38 -4 -8 -1 -11 5 -8 6 4 9 -1 7 -11 -5 -29 31 -24 46 6
8 14 19 37 27 53 7 15 18 27 26 27 7 0 13 6 13 14 0 8 7 17 16 20 9 3 14 12
11 19 -2 6 0 21 6 32 5 11 6 17 2 13 -9 -9 -66 42 -59 53 3 5 -2 12 -10 15 -9
3 -16 12 -16 20 0 8 -6 14 -14 14 -8 0 -21 3 -29 6 -9 3 -17 -2 -21 -13z
m-249 -125 c-3 -8 -6 -5 -6 6 -1 11 2 17 5 13 3 -3 4 -12 1 -19z" />
        <path d="M2145 5030 c3 -5 10 -10 16 -10 5 0 9 5 9 10 0 6 -7 10 -16 10 -8 0
-12 -4 -9 -10z" />
        <path d="M2147 4986 c-4 -10 -1 -13 9 -9 15 6 19 23 5 23 -5 0 -11 -7 -14 -14z" />
        <path d="M2110 4970 c0 -5 5 -10 10 -10 6 0 10 5 10 10 0 6 -4 10 -10 10 -5 0
-10 -4 -10 -10z" />
        <path d="M8604 4955 c-17 -13 -17 -14 -2 -15 9 0 20 5 23 11 11 17 0 20 -21 4z" />
        <path d="M2466 4655 c4 -8 10 -15 15 -15 4 0 6 7 3 15 -4 8 -10 15 -15 15 -4
0 -6 -7 -3 -15z" />
        <path d="M7456 4524 c-3 -9 -3 -20 0 -26 3 -5 6 -25 6 -44 0 -40 10 -44 26 -9
15 33 15 68 0 83 -16 16 -25 15 -32 -4z" />
        <path d="M1530 4482 c0 -21 -36 -46 -45 -32 -11 18 -23 10 -18 -10 3 -12 8
-18 11 -15 3 2 10 -5 17 -18 8 -17 8 -28 -2 -47 -7 -14 -13 -31 -13 -38 0 -7
-4 -11 -9 -8 -5 4 -22 -6 -38 -21 -15 -16 -35 -28 -43 -28 -8 0 -15 -5 -15
-12 0 -6 -3 -15 -7 -19 -5 -4 -8 -16 -8 -26 0 -11 -6 -18 -14 -16 -7 2 -28
-12 -45 -31 -25 -26 -35 -31 -41 -22 -6 10 -10 8 -15 -8 -3 -11 -3 -26 2 -33
8 -14 9 -19 11 -55 4 -46 63 -36 70 12 5 40 9 49 20 53 7 2 12 12 12 22 0 10
5 22 11 26 8 4 7 9 -2 15 -11 7 -11 9 2 9 9 0 19 7 23 15 3 8 14 15 24 15 11
0 25 7 32 15 7 8 10 15 7 15 -4 0 4 10 16 23 12 13 25 22 28 20 10 -4 41 35
35 45 -3 5 1 17 8 28 8 10 11 24 8 32 -3 8 -1 17 4 21 5 3 19 21 32 39 l23 32
-26 10 c-38 15 -55 12 -55 -8z" />
        <path d="M1620 4490 c0 -5 7 -10 16 -10 8 0 12 5 9 10 -3 6 -10 10 -16 10 -5
0 -9 -4 -9 -10z" />
        <path d="M2718 4423 c7 -3 16 -2 19 1 4 3 -2 6 -13 5 -11 0 -14 -3 -6 -6z" />
        <path d="M3512 4372 c-5 -10 -8 -21 -7 -27 1 -17 25 -55 33 -53 11 4 82 -65
82 -79 0 -6 8 -14 18 -17 17 -6 27 -36 12 -36 -4 0 -7 -7 -7 -15 0 -8 4 -15 9
-15 4 0 8 -6 8 -14 0 -8 14 -24 30 -36 17 -12 30 -18 29 -13 -5 30 4 65 25 90
13 15 25 45 28 65 4 34 1 38 -26 48 -16 5 -39 10 -51 10 -24 0 -59 23 -61 39
-1 6 -2 18 -3 26 -1 10 -11 15 -30 15 -17 0 -32 4 -35 9 -11 18 -46 19 -54 3z" />
        <path d="M3725 4329 c-4 -6 -4 -13 -1 -16 3 -4 6 0 6 8 0 12 2 12 10 -1 5 -8
12 -11 15 -8 8 8 -3 28 -15 28 -5 0 -12 -5 -15 -11z" />
        <path d="M10450 4260 c0 -5 5 -10 11 -10 5 0 7 5 4 10 -3 6 -8 10 -11 10 -2 0
-4 -4 -4 -10z" />
        <path d="M5890 4250 c0 -5 7 -10 15 -10 8 0 15 5 15 10 0 6 -7 10 -15 10 -8 0
-15 -4 -15 -10z" />
        <path d="M3300 4225 c0 -8 -5 -15 -12 -15 -8 0 -7 -5 3 -15 17 -17 49 -11 49
9 0 14 -20 36 -32 36 -4 0 -8 -7 -8 -15z" />
        <path d="M4460 4200 c0 -9 -22 -11 -113 -11 -20 0 -27 -4 -24 -13 3 -8 3 -17
-1 -21 -10 -9 -9 -64 1 -58 4 2 7 -1 7 -6 0 -6 -4 -11 -10 -11 -5 0 -10 -7
-10 -15 0 -10 -10 -15 -34 -15 -43 0 -49 9 -32 50 15 36 10 80 -9 80 -7 0 -29
-7 -49 -15 -19 -8 -48 -17 -64 -18 -15 -2 -33 -7 -40 -11 -7 -4 -16 -4 -22 -1
-5 3 -10 1 -10 -4 0 -6 4 -11 8 -11 4 0 18 -20 30 -45 12 -25 18 -45 13 -45
-17 0 -5 -59 15 -78 25 -23 62 -19 93 9 11 10 25 19 31 19 5 0 10 5 10 11 0 8
4 8 14 0 10 -8 16 -9 21 -1 4 7 10 6 19 -2 8 -7 23 -19 34 -27 12 -8 19 -17
17 -21 -2 -3 8 -7 22 -8 19 -1 24 2 19 14 -4 10 5 25 24 42 16 15 30 36 30 48
0 14 8 24 22 27 18 5 19 8 9 21 -8 9 -11 26 -7 40 3 14 1 28 -5 31 -6 4 -8 18
-5 31 4 13 4 24 1 24 -3 0 -5 -4 -5 -10z" />
        <path d="M5488 4173 c7 -3 16 -2 19 1 4 3 -2 6 -13 5 -11 0 -14 -3 -6 -6z" />
        <path d="M5540 4147 c0 -14 4 -28 10 -32 5 -3 7 -12 4 -20 -4 -8 1 -18 10 -21
9 -3 16 -11 16 -16 0 -6 -6 -5 -15 2 -12 10 -15 10 -15 -2 0 -18 -32 -45 -51
-43 -10 2 -14 -8 -14 -35 0 -21 4 -36 8 -33 4 3 13 0 20 -5 15 -12 57 2 57 19
0 6 16 25 35 42 19 16 32 33 30 37 -3 5 4 11 15 15 33 10 23 115 -11 115 -11
0 -19 -5 -19 -11 0 -6 -7 -8 -16 -5 -52 20 -64 19 -64 -7z" />
        <path d="M4480 4100 c0 -5 5 -10 11 -10 5 0 7 5 4 10 -3 6 -8 10 -11 10 -2 0
-4 -4 -4 -10z" />
        <path d="M5867 4095 c-9 -8 -22 -15 -29 -16 -7 0 -4 -4 7 -9 30 -13 38 -12 32
4 -3 8 -1 17 6 19 7 2 9 7 6 11 -4 4 -14 0 -22 -9z" />
        <path d="M1160 4032 c0 -5 7 -9 15 -9 8 0 12 4 9 9 -3 4 -9 8 -15 8 -5 0 -9
-4 -9 -8z" />
        <path d="M742 3973 c-12 -15 -22 -22 -22 -15 0 7 -7 12 -15 12 -12 0 -14 -4
-5 -20 14 -26 -13 -41 -66 -36 -23 2 -43 -2 -52 -10 -17 -17 -36 -18 -26 -1 4
7 2 7 -7 -2 -11 -10 -11 -15 -1 -18 6 -3 12 -12 12 -22 0 -10 9 -17 21 -18 12
-1 28 -11 35 -21 10 -14 25 -20 49 -19 19 1 35 4 35 7 0 4 11 13 24 20 14 7
26 22 28 34 2 12 9 20 16 19 18 -4 15 37 -5 59 -9 10 -13 21 -8 26 4 4 10 1
12 -5 7 -18 22 -16 19 2 -5 32 -22 35 -44 8z m-82 -83 c0 -5 -2 -10 -4 -10 -3
0 -8 5 -11 10 -3 6 -1 10 4 10 6 0 11 -4 11 -10z" />
        <path d="M4583 3951 c3 -14 1 -18 -10 -14 -11 4 -14 0 -11 -18 1 -13 10 -24
18 -24 8 0 14 6 13 13 -2 6 3 12 11 12 21 0 25 23 7 37 -23 18 -34 16 -28 -6z" />
        <path d="M522 3793 c-9 -8 -11 -12 -4 -8 6 3 12 2 12 -3 0 -14 -25 -22 -48
-16 -22 6 -35 -16 -21 -37 5 -8 9 -11 9 -7 0 4 14 3 32 -2 36 -11 58 1 58 31
0 11 7 19 18 20 10 0 12 3 5 6 -7 2 -13 10 -13 17 0 17 -27 16 -48 -1z" />
        <path d="M7940 3600 c0 -5 5 -10 10 -10 6 0 10 5 10 10 0 6 -4 10 -10 10 -5 0
-10 -4 -10 -10z" />
        <path d="M9490 3589 c0 -5 5 -7 10 -4 6 3 10 8 10 11 0 2 -4 4 -10 4 -5 0 -10
-5 -10 -11z" />
        <path d="M9246 3394 c-6 -15 3 -18 28 -8 22 8 20 19 -3 21 -11 1 -22 -5 -25
-13z" />
        <path d="M4860 2951 c0 -6 -6 -8 -14 -5 -8 3 -23 1 -33 -5 -17 -10 -17 -10 1
-11 12 0 16 -5 13 -14 -8 -20 26 -30 52 -17 11 6 27 8 36 5 14 -6 14 -3 4 20
-7 14 -16 26 -20 26 -4 0 -14 3 -23 6 -9 3 -16 1 -16 -5z" />
        <path d="M4718 2913 c6 -2 9 -10 6 -15 -4 -7 -2 -8 5 -4 13 9 5 26 -12 25 -9
0 -8 -2 1 -6z" />
        <path d="M4302 2721 c2 -7 7 -12 11 -12 12 1 9 15 -3 20 -7 2 -11 -2 -8 -8z" />
        <path d="M8315 2630 c-3 -5 -1 -10 4 -10 6 0 11 5 11 10 0 6 -2 10 -4 10 -3 0
-8 -4 -11 -10z" />
        <path d="M8053 2583 c0 -9 4 -10 14 -2 7 6 13 12 13 14 0 1 -6 2 -13 2 -8 0
-14 -6 -14 -14z" />
        <path d="M8079 2529 c-16 -17 -29 -37 -29 -45 0 -8 -6 -11 -15 -8 -20 8 -19
-16 3 -44 l18 -23 25 23 c14 13 28 31 32 41 3 9 11 17 17 17 5 0 10 5 10 11 0
5 -4 7 -10 4 -7 -4 -7 3 0 20 13 34 13 35 -6 35 -9 0 -29 -14 -45 -31z" />
    </g>
</svg>